<svg xmlns="http://www.w3.org/2000/svg" width="225.686" height="69.541" viewBox="0 0 225.686 69.541">
  <g id="Group_27" data-name="Group 27" transform="translate(-753.128 -68.066)">
    <g id="Group_26" data-name="Group 26" transform="translate(846.912 68.066)">
      <circle id="Ellipse_1" data-name="Ellipse 1" cx="3.477" cy="3.477" r="3.477" fill="#1c9dff"/>
      <circle id="Ellipse_2" data-name="Ellipse 2" cx="3.477" cy="3.477" r="3.477" transform="translate(31.293)" fill="#1c9dff"/>
      <circle id="Ellipse_3" data-name="Ellipse 3" cx="3.477" cy="3.477" r="3.477" transform="translate(0 31.293)" fill="#1c9dff"/>
      <circle id="Ellipse_4" data-name="Ellipse 4" cx="3.477" cy="3.477" r="3.477" transform="translate(62.474)" fill="#1c9dff"/>
      <circle id="Ellipse_5" data-name="Ellipse 5" cx="3.477" cy="3.477" r="3.477" transform="translate(93.767)" fill="#1c9dff"/>
      <circle id="Ellipse_6" data-name="Ellipse 6" cx="3.477" cy="3.477" r="3.477" transform="translate(124.948)" fill="#1c9dff"/>
      <circle id="Ellipse_7" data-name="Ellipse 7" cx="3.477" cy="3.477" r="3.477" transform="translate(31.293 31.293)" fill="#1c9dff"/>
      <circle id="Ellipse_8" data-name="Ellipse 8" cx="3.477" cy="3.477" r="3.477" transform="translate(62.474 31.293)" fill="#1c9dff"/>
      <circle id="Ellipse_9" data-name="Ellipse 9" cx="3.477" cy="3.477" r="3.477" transform="translate(93.767 31.293)" fill="#1c9dff"/>
      <circle id="Ellipse_10" data-name="Ellipse 10" cx="3.477" cy="3.477" r="3.477" transform="translate(124.948 31.293)" fill="#1c9dff"/>
      <circle id="Ellipse_11" data-name="Ellipse 11" cx="3.477" cy="3.477" r="3.477" transform="translate(0 62.587)" fill="#1c9dff"/>
      <circle id="Ellipse_12" data-name="Ellipse 12" cx="3.477" cy="3.477" r="3.477" transform="translate(31.293 62.587)" fill="#1c9dff"/>
      <circle id="Ellipse_13" data-name="Ellipse 13" cx="3.477" cy="3.477" r="3.477" transform="translate(62.474 62.587)" fill="#1c9dff"/>
      <circle id="Ellipse_14" data-name="Ellipse 14" cx="3.477" cy="3.477" r="3.477" transform="translate(93.767 62.587)" fill="#1c9dff"/>
      <circle id="Ellipse_15" data-name="Ellipse 15" cx="3.477" cy="3.477" r="3.477" transform="translate(124.948 62.587)" fill="#1c9dff"/>
    </g>
    <circle id="Ellipse_16" data-name="Ellipse 16" cx="3.477" cy="3.477" r="3.477" transform="translate(753.128 68.066)" fill="#1c9dff"/>
    <circle id="Ellipse_17" data-name="Ellipse 17" cx="3.477" cy="3.477" r="3.477" transform="translate(784.421 68.066)" fill="#1c9dff"/>
    <circle id="Ellipse_18" data-name="Ellipse 18" cx="3.477" cy="3.477" r="3.477" transform="translate(815.602 68.066)" fill="#1c9dff"/>
    <circle id="Ellipse_19" data-name="Ellipse 19" cx="3.477" cy="3.477" r="3.477" transform="translate(753.128 99.359)" fill="#1c9dff"/>
    <circle id="Ellipse_20" data-name="Ellipse 20" cx="3.477" cy="3.477" r="3.477" transform="translate(784.421 99.359)" fill="#1c9dff"/>
    <circle id="Ellipse_21" data-name="Ellipse 21" cx="3.477" cy="3.477" r="3.477" transform="translate(815.602 99.359)" fill="#1c9dff"/>
    <circle id="Ellipse_22" data-name="Ellipse 22" cx="3.477" cy="3.477" r="3.477" transform="translate(753.128 130.653)" fill="#1c9dff"/>
    <circle id="Ellipse_23" data-name="Ellipse 23" cx="3.477" cy="3.477" r="3.477" transform="translate(784.421 130.653)" fill="#1c9dff"/>
    <circle id="Ellipse_24" data-name="Ellipse 24" cx="3.477" cy="3.477" r="3.477" transform="translate(813.093 130.653)" fill="#1c9dff"/>
  </g>
</svg>
