<svg xmlns="http://www.w3.org/2000/svg" width="121.632" height="84.073" viewBox="0 0 121.632 84.073">
  <g id="Group_28" data-name="Group 28" transform="translate(-63.012 -365.273)">
    <circle id="Ellipse_25" data-name="Ellipse 25" cx="4.204" cy="4.204" r="4.204" transform="translate(63.012 365.273)" fill="#bf3efe"/>
    <circle id="Ellipse_26" data-name="Ellipse 26" cx="4.204" cy="4.204" r="4.204" transform="translate(100.708 365.273)" fill="#bf3efe"/>
    <circle id="Ellipse_27" data-name="Ellipse 27" cx="4.204" cy="4.204" r="4.204" transform="translate(138.541 365.273)" fill="#bf3efe"/>
    <circle id="Ellipse_28" data-name="Ellipse 28" cx="4.204" cy="4.204" r="4.204" transform="translate(176.237 365.273)" fill="#bf3efe"/>
    <circle id="Ellipse_29" data-name="Ellipse 29" cx="4.204" cy="4.204" r="4.204" transform="translate(63.012 403.106)" fill="#bf3efe"/>
    <circle id="Ellipse_30" data-name="Ellipse 30" cx="4.204" cy="4.204" r="4.204" transform="translate(100.708 403.106)" fill="#bf3efe"/>
    <circle id="Ellipse_31" data-name="Ellipse 31" cx="4.204" cy="4.204" r="4.204" transform="translate(138.541 403.106)" fill="#bf3efe"/>
    <circle id="Ellipse_32" data-name="Ellipse 32" cx="4.204" cy="4.204" r="4.204" transform="translate(176.237 403.106)" fill="#bf3efe"/>
    <circle id="Ellipse_33" data-name="Ellipse 33" cx="4.204" cy="4.204" r="4.204" transform="translate(63.012 440.939)" fill="#bf3efe"/>
    <circle id="Ellipse_34" data-name="Ellipse 34" cx="4.204" cy="4.204" r="4.204" transform="translate(100.708 440.939)" fill="#bf3efe"/>
    <circle id="Ellipse_35" data-name="Ellipse 35" cx="4.204" cy="4.204" r="4.204" transform="translate(138.541 440.939)" fill="#bf3efe"/>
    <circle id="Ellipse_36" data-name="Ellipse 36" cx="4.204" cy="4.204" r="4.204" transform="translate(176.237 440.939)" fill="#bf3efe"/>
  </g>
</svg>
