<svg xmlns="http://www.w3.org/2000/svg" xmlns:xlink="http://www.w3.org/1999/xlink" width="238.339" height="37.593" viewBox="0 0 238.339 37.593">
  <defs>
    <clipPath id="clip-path">
      <rect id="Rectangle_8" data-name="Rectangle 8" width="136.486" height="37.593" fill="none"/>
    </clipPath>
  </defs>
  <g id="Group_19" data-name="Group 19" transform="translate(-76.566 -77.738)">
    <g id="Logo-2" transform="translate(76.566 77.738)">
      <rect id="Rectangle_1" data-name="Rectangle 1" width="136.486" height="37.593" fill="red"/>
      <g id="Group_6" data-name="Group 6">
        <g id="Group_10" data-name="Group 10">
          <g id="Group_9" data-name="Group 9" clip-path="url(#clip-path)">
            <g id="Group_1" data-name="Group 1" transform="translate(61.771 7.971)">
              <path id="Path_1" data-name="Path 1" d="M125.841,98.846a3.293,3.293,0,0,0,1.187.608,5.831,5.831,0,0,0,1.436.15,8.292,8.292,0,0,0,3.594-.827v2.243a10.319,10.319,0,0,1-3.8.711,5.706,5.706,0,0,1-4.474-1.712,7.225,7.225,0,0,1-1.53-4.962,7.225,7.225,0,0,1,1.53-4.962,5.7,5.7,0,0,1,4.474-1.713,10.294,10.294,0,0,1,3.8.723v2.257a8.037,8.037,0,0,0-3.545-.85h-.049a3.96,3.96,0,0,0-2.789.925c-.677.615-1.007,1.821-1.007,3.625a8.047,8.047,0,0,0,.3,2.381,2.729,2.729,0,0,0,.875,1.4m16.189,2.689V93.81a3.125,3.125,0,0,0-.8-2.538,3.269,3.269,0,0,0-2.092-.633,8.705,8.705,0,0,0-3.184.621v10.274h-2.358v-17.9h2.358v5.39a9.36,9.36,0,0,1,3.412-.64,4.889,4.889,0,0,1,3.745,1.434,5.806,5.806,0,0,1,1.332,4.088v7.627Zm14.488-3.165a4.725,4.725,0,0,1-.392,1.053,3.528,3.528,0,0,1-.844,1.128,4.517,4.517,0,0,1-1.6.831,8.818,8.818,0,0,1-4.956-.011,4.731,4.731,0,0,1-1.616-.845,3.671,3.671,0,0,1-.863-1.145,4.191,4.191,0,0,1-.4-1.091,5.125,5.125,0,0,1-.076-.85,3.407,3.407,0,0,1,1.616-3,7.978,7.978,0,0,1,4.456-1.079,17.362,17.362,0,0,1,2.339.15,3.168,3.168,0,0,0-.887-2.344,4.033,4.033,0,0,0-2.661-.711,11.151,11.151,0,0,0-3.569.645V89.078a10.846,10.846,0,0,1,3.894-.694,5.778,5.778,0,0,1,4.16,1.4,5.307,5.307,0,0,1,1.472,4.022v3.738a3.871,3.871,0,0,1-.076.827m-2.331-2.954a14.655,14.655,0,0,0-2.243-.164,6.206,6.206,0,0,0-1.084.1,8.986,8.986,0,0,0-1.218.3,2.389,2.389,0,0,0-1.086.669,1.589,1.589,0,0,0-.427,1.109c0,1.46,1.03,2.2,3.093,2.2h.035q2.922,0,2.919-2.105v-2.1ZM160.7,91.1v10.424h-2.357V89.674a16.819,16.819,0,0,1,6.281-1.29v2.177a16.585,16.585,0,0,0-3.925.542m10.839,8.5h.024a2.792,2.792,0,0,0,1.5-.38v2.147a4.641,4.641,0,0,1-1.767.362h-.059a4.567,4.567,0,0,1-1-.115,6.455,6.455,0,0,1-1.265-.446,2.672,2.672,0,0,1-1.221-1.164,4.05,4.05,0,0,1-.477-2.056V90.611h-2.243V88.58h2.243V84.746h2.358V88.58h3.431v2.031h-3.431v7.481c-.005,1.013.627,1.513,1.9,1.513m5.71-6.536a8.345,8.345,0,0,0,1.64.633,18.524,18.524,0,0,1,1.917.657,3.774,3.774,0,0,1,1.163,6.246,5.046,5.046,0,0,1-3.623,1.134,7.551,7.551,0,0,1-3.721-.91V98.665a7.153,7.153,0,0,0,3.569.946h.047a3.351,3.351,0,0,0,1.887-.446,1.351,1.351,0,0,0,.652-1.146,1.506,1.506,0,0,0-.677-1.283,5.139,5.139,0,0,0-1.645-.76c-.645-.181-1.3-.385-1.935-.61a3.764,3.764,0,0,1-1.64-1.109,2.951,2.951,0,0,1-.677-2.014,3.684,3.684,0,0,1,1.14-2.731,4.8,4.8,0,0,1,3.485-1.128,7.637,7.637,0,0,1,3.449.85v2.052a7.623,7.623,0,0,0-3.158-.772q-2.555,0-2.562,1.659a1.071,1.071,0,0,0,.687.9" transform="translate(-122.254 -83.633)" fill="#fff"/>
            </g>
          </g>
        </g>
        <g id="Group_12" data-name="Group 12">
          <g id="Group_11" data-name="Group 11" clip-path="url(#clip-path)">
            <g id="Group_2" data-name="Group 2" transform="translate(28.166 21.821)">
              <path id="Path_2" data-name="Path 2" d="M102.641,93.924a5.262,5.262,0,0,1-5.239,5.24c-.007,0,0-5.288,0-5.288.047.054,5.239.03,5.239.047" transform="translate(-97.399 -93.877)" fill="#fff"/>
            </g>
          </g>
        </g>
        <g id="Group_14" data-name="Group 14">
          <g id="Group_13" data-name="Group 13" clip-path="url(#clip-path)">
            <g id="Group_3" data-name="Group 3" transform="translate(10.949 8.946)">
              <path id="Path_3" data-name="Path 3" d="M132.157,101.28V92.79a2.8,2.8,0,0,0-.542-1.8,2.609,2.609,0,0,0-2.123-.681,9.024,9.024,0,0,0-3.458.723,5.389,5.389,0,0,1,.3,1.851v8.4h-2.359V92.815a2.539,2.539,0,0,0-.6-1.8,3.214,3.214,0,0,0-2.381-.657,10.718,10.718,0,0,0-2.816.392v10.525h-2.355V96.07a6.993,6.993,0,0,1-5.842,2.424,8.421,8.421,0,0,1-15.736,2.792H84.664V99.079l6.56-8.561H84.815V88.341h9.436v2.14l-6.536,8.543H93.4l-.018-.074A8.5,8.5,0,0,1,99.9,88.89a8.358,8.358,0,0,1,4,.127,7.007,7.007,0,0,1,13.144-.164,11.641,11.641,0,0,1,4.118-.752,5.743,5.743,0,0,1,3.448.978,12.628,12.628,0,0,1,4.728-.978,5.368,5.368,0,0,1,3.81,1.278,4.658,4.658,0,0,1,1.368,3.575v8.32l-2.363.005ZM110.621,86.527a4.982,4.982,0,0,0-4.981,4.979,5.29,5.29,0,0,0,.054.76,6.3,6.3,0,1,0,2.292,3.467,4.979,4.979,0,1,0,2.631-9.206" transform="translate(-84.664 -84.354)" fill="#fff"/>
            </g>
          </g>
        </g>
        <g id="Group_16" data-name="Group 16">
          <g id="Group_15" data-name="Group 15" clip-path="url(#clip-path)">
            <g id="Group_4" data-name="Group 4" transform="translate(122.637 13.006)">
              <path id="Path_4" data-name="Path 4" d="M168.81,87.357a1.538,1.538,0,1,0,1.537,1.537h0a1.541,1.541,0,0,0-1.537-1.537m0,2.762a1.224,1.224,0,1,1,1.224-1.225,1.226,1.226,0,0,1-1.224,1.225" transform="translate(-167.273 -87.357)" fill="#fff"/>
            </g>
          </g>
        </g>
        <g id="Group_18" data-name="Group 18">
          <g id="Group_17" data-name="Group 17" clip-path="url(#clip-path)">
            <g id="Group_5" data-name="Group 5" transform="translate(123.493 13.697)">
              <path id="Path_5" data-name="Path 5" d="M169,88.822a.377.377,0,0,0-.15-.089.425.425,0,0,0,.226-.151.412.412,0,0,0,.076-.265.376.376,0,0,0-.151-.338.794.794,0,0,0-.464-.108h-.633v1.61h.415v-.608h.115a.318.318,0,0,1,.164.042.409.409,0,0,1,.12.162l.2.4h.439l-.226-.452a.636.636,0,0,0-.131-.2m-.314-.284a.3.3,0,0,1-.188.047h-.174v-.415h.174a.3.3,0,0,1,.188.049.2.2,0,0,1,.06.155.2.2,0,0,1-.06.164" transform="translate(-167.906 -87.868)" fill="#fff"/>
            </g>
          </g>
        </g>
      </g>
    </g>
    <path id="Path_998" data-name="Path 998" d="M195.8,100.857h3.264l-5.413-14.042H189.91l-5.431,14.042h3.284l.882-2.42h6.273Zm-4.021-11.452,2.316,6.441h-4.652Zm8.4,6.357a5.162,5.162,0,0,0,4.97,5.349c.139.005.28.005.419,0a4.684,4.684,0,0,0,4.021-1.852l-1.747-1.621a2.568,2.568,0,0,1-2.148,1.1,2.736,2.736,0,0,1-2.768-2.7c0-.089,0-.178.011-.268a2.716,2.716,0,0,1,2.477-2.938,2.764,2.764,0,0,1,.28-.009,2.467,2.467,0,0,1,2.148,1.1l1.747-1.643a4.73,4.73,0,0,0-4.021-1.831,5.155,5.155,0,0,0-5.386,4.917C200.18,95.491,200.179,95.626,200.184,95.763Zm17.788,5.094h2.674V94.289c0-2.926-2.127-3.852-4.443-3.852a6.663,6.663,0,0,0-4.441,1.6l1.01,1.79a4.276,4.276,0,0,1,2.969-1.2c1.347,0,2.231.676,2.231,1.7v1.417a4.11,4.11,0,0,0-3.22-1.242c-1.621,0-3.534.863-3.534,3.242a3.388,3.388,0,0,0,3.4,3.372c.043,0,.088,0,.131,0a4.21,4.21,0,0,0,3.22-1.307Zm0-2.442a2.677,2.677,0,0,1-2.147.884c-1.052,0-1.919-.548-1.919-1.5,0-.988.867-1.533,1.919-1.533a2.677,2.677,0,0,1,2.147.884Zm12.843,2.442h2.695V86.815h-2.695v5.18a3.914,3.914,0,0,0-3.137-1.558c-2.59,0-4.506,2.02-4.506,5.347,0,3.389,1.937,5.326,4.506,5.326a3.949,3.949,0,0,0,3.137-1.558Zm0-3.284a2.913,2.913,0,0,1-2.316,1.159,2.65,2.65,0,0,1-2.569-2.947c0-1.768,1.053-2.969,2.569-2.969a2.913,2.913,0,0,1,2.316,1.159Zm5.22-1.81a5.15,5.15,0,0,0,4.94,5.351q.245.01.491,0a6.343,6.343,0,0,0,4.19-1.41l-1.179-1.729a4.154,4.154,0,0,1-2.716,1.01,2.739,2.739,0,0,1-2.926-2.358h7.558v-.589c0-3.326-2.063-5.6-5.094-5.6a5.176,5.176,0,0,0-5.265,5.085C236.032,95.6,236.032,95.681,236.035,95.763Zm5.263-3.2a2.357,2.357,0,0,1,2.5,2.2l0,.057h-5.011A2.444,2.444,0,0,1,241.3,92.562Zm20.168,8.295h2.695V93.51c0-2.085-1.115-3.073-2.989-3.073a4.316,4.316,0,0,0-3.495,1.85,2.69,2.69,0,0,0-2.82-1.854,4.452,4.452,0,0,0-3.327,1.579V90.686h-2.673v10.171h2.673V94.016a2.729,2.729,0,0,1,2.105-1.2c1.1,0,1.517.676,1.517,1.621v6.423h2.695V93.994a2.7,2.7,0,0,1,2.105-1.179c1.094,0,1.516.677,1.516,1.621Zm5.895,1.579-.4,2.4a7.286,7.286,0,0,0,1.326.15c1.747-.042,3.095-.546,3.852-2.462l4.779-11.831h-2.884l-2.653,7.074-2.653-7.074h-2.864l4.129,10.314-.376.864a1.349,1.349,0,0,1-1.41.737,2.323,2.323,0,0,1-.845-.172Z" transform="translate(37.986 3.195)" fill="#414141"/>
  </g>
</svg>
