<svg xmlns="http://www.w3.org/2000/svg" xmlns:xlink="http://www.w3.org/1999/xlink" width="1250" height="469" viewBox="0 0 1250 469">
  <defs>
    <clipPath id="clip-path">
      <rect id="Rectangle_6" data-name="Rectangle 6" width="469" height="1250" transform="translate(1249.692 -0.24) rotate(90)" fill="none"/>
    </clipPath>
    <linearGradient id="linear-gradient" x1="0.927" y1="0.741" x2="0.341" y2="0.824" gradientUnits="objectBoundingBox">
      <stop offset="0.127" stop-color="#00b3c0"/>
      <stop offset="0.193" stop-color="#1555b4"/>
      <stop offset="0.256" stop-color="#2900aa"/>
      <stop offset="0.281" stop-color="#3025ac"/>
      <stop offset="0.317" stop-color="#3853af"/>
      <stop offset="0.352" stop-color="#4079b1"/>
      <stop offset="0.388" stop-color="#4596b3"/>
      <stop offset="0.422" stop-color="#49acb4"/>
      <stop offset="0.456" stop-color="#4cb8b5"/>
      <stop offset="0.488" stop-color="#4dbdb6"/>
      <stop offset="0.565" stop-color="#4287b2"/>
      <stop offset="0.657" stop-color="#374dae"/>
      <stop offset="0.736" stop-color="#2f23ac"/>
      <stop offset="0.798" stop-color="#2a09aa"/>
      <stop offset="0.835" stop-color="#2900aa"/>
    </linearGradient>
  </defs>
  <g id="Group_7" data-name="Group 7" transform="translate(0.308 0.24)" clip-path="url(#clip-path)">
    <rect id="Rectangle_4" data-name="Rectangle 4" width="511.713" height="1371.416" transform="translate(1326.018 -19.196) rotate(90)" fill="#fff"/>
    <g id="Group_5" data-name="Group 5" transform="translate(-253.282 -109.044)">
      <path id="Path_122" data-name="Path 122" d="M-320.811,769.782c18.6-47.023,45.455-236.936,49.833-266.618,8.482-57.5,3.6,12.029,16.065-26.6,19.521-60.517,111.787-38.62,71.782-71.005-41-33.187-285.739,403.739-302.586,380.672C-503.622,761.708,167.159,55.5,161.373,18.2c-9.809-63.248,89.221,324.182,21.474,267.446" transform="translate(495.476 108.772)" fill="none" stroke="rgba(44,23,161,0.2)" stroke-miterlimit="10" stroke-width="0.013"/>
      <path id="Path_123" data-name="Path 123" d="M-293.561,763.581c8.016-47.861,25.664-237.668,29.431-263.326,7.706-52.377-1.535,5.883,10.66-29.45,19.107-55.755,111.292-42.685,75.17-70.126-40.019-30.4-278.5,394.231-294.47,372.977-16.857-22.3,644.652-719.128,637.146-757.545-12.408-63.508,73.5,319.241,5.168,277.168" transform="translate(495.48 108.771)" fill="none" stroke="rgba(46,25,161,0.22)" stroke-miterlimit="10" stroke-width="0.015"/>
      <path id="Path_124" data-name="Path 124" d="M-266.312,757.382c-2.569-48.7,5.875-238.4,9.03-260.035,6.928-47.252-6.593-.234,5.254-32.3,18.822-50.947,110.835-46.658,78.557-69.247-39.145-27.394-271.2,384.67-286.355,365.279-15.739-20.133,636.464-707.495,627.2-747.062-14.92-63.74,57.78,314.3-11.139,286.891" transform="translate(495.485 108.77)" fill="none" stroke="rgba(47,27,160,0.23)" stroke-miterlimit="10" stroke-width="0.018"/>
      <path id="Path_125" data-name="Path 125" d="M-239.063,751.181c-13.153-49.538-13.917-239.136-11.373-256.742,6.152-42.128-11.684-6.358-.153-35.144,18.487-46.15,110.466-50.5,81.946-68.366-38.4-24.051-263.921,375.128-278.241,357.584C-461.533,730.566,181.43,52.672,170.378,11.933c-17.35-63.954,42.058,309.362-27.445,296.615" transform="translate(495.489 108.77)" fill="none" stroke="rgba(49,28,160,0.25)" stroke-miterlimit="10" stroke-width="0.02"/>
      <path id="Path_126" data-name="Path 126" d="M-211.813,744.98c-23.738-50.377-33.707-239.869-31.774-253.45,5.374-37-16.769-12.474-5.559-37.989,18.163-41.342,110.263-54.173,85.334-67.486-37.8-20.189-256.638,365.574-270.127,349.888C-447.5,720.172,186.254,51.769,173.38,9.845c-19.7-64.157,26.338,304.42-43.751,306.337" transform="translate(495.493 108.769)" fill="none" stroke="rgba(50,30,160,0.26)" stroke-miterlimit="10" stroke-width="0.023"/>
      <path id="Path_127" data-name="Path 127" d="M-184.563,738.78c-34.324-51.216-53.527-240.607-52.177-250.157,4.5-31.893-21.846-18.581-10.965-40.837,17.854-36.515,111.791-62.276,88.722-66.607-33.3-22.9-249.349,356.011-262.011,342.192-12.462-13.6,612.106-672.491,597.376-715.613C154.4-56.6,187,307.238,116.324,323.816" transform="translate(495.498 108.768)" fill="none" stroke="rgba(52,32,159,0.28)" stroke-miterlimit="10" stroke-width="0.025"/>
      <path id="Path_128" data-name="Path 128" d="M-157.313,732.58c-44.909-52.054-73.328-241.342-72.58-246.866,3.628-26.78-26.916-24.67-16.369-43.683,17.562-31.662,111.791-67.008,92.109-65.728-31.757-20.841-242.052,346.431-253.9,334.5C-419.413,699.35,196,49.993,179.382,5.669c-24.206-64.554-5.1,294.541-76.363,325.782" transform="translate(495.502 108.767)" fill="none" stroke="rgba(53,34,159,0.29)" stroke-miterlimit="10" stroke-width="0.028"/>
      <path id="Path_129" data-name="Path 129" d="M-130.065,726.38c-55.493-52.893-93.135-242.075-92.982-243.575,2.226-21.728-31.98-30.735-21.775-46.53,17.291-26.766,111.792-71.74,95.5-64.847-30.217-18.783-234.743,336.823-245.781,326.8C-405.367,688.909,200.923,49.11,182.385,3.581c-26.37-64.758-20.825,289.6-92.671,335.5" transform="translate(495.506 108.767)" fill="none" stroke="rgba(55,36,159,0.31)" stroke-miterlimit="10" stroke-width="0.03"/>
      <path id="Path_130" data-name="Path 130" d="M-102.815,720.18C-168.893,666.448-215.683,477.376-216.2,479.9c2.269-16.5-37.041-36.761-27.182-49.377,17.038-21.8,111.792-76.471,98.886-63.968-28.676-16.726-227.427,327.172-237.666,319.1-9.164-7.22,588.034-637.43,567.547-684.163C156.9-63.478,148.841,286.152,76.409,346.719" transform="translate(495.51 108.766)" fill="none" stroke="rgba(56,38,158,0.33)" stroke-miterlimit="10" stroke-width="0.032"/>
      <path id="Path_131" data-name="Path 131" d="M-75.565,713.979c-76.663-54.571-132.659-243.536-133.785-236.99,1.491-11.38-42.118-42.723-32.589-52.224,16.781-16.728,111.794-81.2,102.274-63.088-27.137-14.668-220.107,317.45-229.552,311.407C-377.3,667.909,210.85,47.337,188.388-.6,157.838-65.786,136.121,279.124,63.1,354.354" transform="translate(495.515 108.765)" fill="none" stroke="rgba(58,39,158,0.34)" stroke-miterlimit="10" stroke-width="0.035"/>
      <path id="Path_132" data-name="Path 132" d="M-48.316,707.779c-87.249-55.409-152.449-244.269-154.188-233.7.715-6.253-47.254-48.594-37.993-55.07,16.449-11.5,111.793-85.934,105.661-62.208-25.6-12.61-212.817,307.623-221.436,303.711-7.07-3.208,572.123-614.069,547.661-663.2C158.814-68.106,123.4,272.1,49.8,361.988" transform="translate(495.519 108.765)" fill="none" stroke="rgba(59,41,157,0.36)" stroke-miterlimit="10" stroke-width="0.037"/>
      <path id="Path_133" data-name="Path 133" d="M-21.067,701.579c-97.832-56.249-172.239-245-174.588-230.407-.062-1.13-52.546-54.375-43.4-57.918,15.884-6.153,111.794-90.665,109.049-61.328-24.057-10.553-206.122,299.137-213.321,296.015-6.36-.1,564.2-602.4,537.719-652.714-34.568-65.667-83.709,269.839-157.9,374.394" transform="translate(495.523 108.764)" fill="none" stroke="rgba(61,43,157,0.37)" stroke-miterlimit="10" stroke-width="0.04"/>
      <path id="Path_134" data-name="Path 134" d="M6.183,695.379C-102.235,638.291-185.389,449.72-188.808,468.263c-.74,4.014-57.4-57.188-48.805-60.764,13.789-5.738,111.794-95.4,112.436-60.449-22.517-8.494-198.883,289.629-205.207,288.32-5.31,2.119,556.309-590.738,527.776-642.23-36.529-65.924-99.428,264.9-174.2,384.116" transform="translate(495.527 108.763)" fill="none" stroke="rgba(63,45,157,0.39)" stroke-miterlimit="10" stroke-width="0.042"/>
      <path id="Path_135" data-name="Path 135" d="M33.431,689.179c-119-57.926-211.607-246.436-215.392-223.824-1.529,9.135-63.8-66.264-54.213-63.611,13.686,3.786,111.8-100.128,115.825-59.57-20.978-6.436-191.645,280.12-197.091,280.623C-321.7,627.136,230.994,43.711,200.394-8.949,161.931-75.143,85.245,251.01,9.886,384.891" transform="translate(495.532 108.762)" fill="none" stroke="rgba(64,47,156,0.4)" stroke-miterlimit="10" stroke-width="0.045"/>
      <path id="Path_136" data-name="Path 136" d="M60.681,682.978C-68.905,624.213-170.786,435.8-175.113,462.447c-2.316,14.257-69.353-72.663-59.618-66.458,12.674,8.078,111.8-104.859,119.212-58.689-19.437-4.379-184.408,270.61-188.976,272.928C-307.706,616.786,236.079,42.78,203.4-11.037,163.022-77.515,72.525,243.982-3.419,392.525" transform="translate(495.536 108.762)" fill="none" stroke="rgba(66,49,156,0.42)" stroke-miterlimit="10" stroke-width="0.047"/>
      <path id="Path_137" data-name="Path 137" d="M87.931,676.778c-140.171-59.6-251.291-247.921-256.2-217.24-3.1,19.38-74.636-79.158-65.024-69.3,12.011,12.312,111.8-109.591,122.6-57.81-17.9-2.322-177.17,261.1-180.862,265.232C-293.713,606.434,241.183,41.837,206.4-13.125,164.135-79.9,59.807,236.953-16.724,400.159" transform="translate(495.54 108.761)" fill="none" stroke="rgba(67,50,156,0.44)" stroke-miterlimit="10" stroke-width="0.049"/>
      <path id="Path_138" data-name="Path 138" d="M115.181,670.578c-150.758-60.442-271.1-248.658-276.6-213.947-3.882,24.5-79.753-85.591-70.429-72.152,11.562,16.666,111.8-114.323,125.988-56.93-16.359-.264-170.983,251.2-172.747,257.535-2.965,10.65,524.909-544.2,488-600.3C165.265-82.3,47.086,229.925-30.028,407.793" transform="translate(495.544 108.76)" fill="none" stroke="rgba(69,52,155,0.45)" stroke-miterlimit="10" stroke-width="0.052"/>
      <path id="Path_139" data-name="Path 139" d="M142.43,664.378c-161.342-61.281-290.982-249.4-297-210.655-4.723,29.618-84.812-91.94-75.836-75,11.2,21.149,111.8-119.052,129.377-56.049-14.819,1.794-163.638,241.907-164.632,249.839C-267.307,585.628,251.438,39.918,212.4-17.3,166.411-84.711,34.368,222.9-43.333,415.428" transform="translate(495.549 108.759)" fill="none" stroke="rgba(70,54,155,0.47)" stroke-miterlimit="10" stroke-width="0.054"/>
      <path id="Path_140" data-name="Path 140" d="M169.679,658.177c-171.926-62.12-310.771-250.138-317.4-207.364-5.5,34.744-89.857-98.222-81.242-77.845,10.875,25.72,111.8-123.785,132.765-55.171-13.279,3.852-156.293,232.518-156.516,242.145-.36,15.464,509.3-521,468.119-579.333C167.57-87.136,21.648,215.868-56.638,423.062" transform="translate(495.553 108.759)" fill="none" stroke="rgba(72,56,155,0.48)" stroke-miterlimit="10" stroke-width="0.057"/>
      <path id="Path_141" data-name="Path 141" d="M196.929,651.977C14.418,589.018-133.633,401.105-140.875,447.9c-6.276,39.868-94.909-104.463-86.648-80.692,10.548,30.352,111.8-128.516,136.153-54.291-11.74,5.909-148.963,223.077-148.4,234.447C-238.9,565.122,261.745,37.951,218.4-21.479,168.741-89.573,8.929,208.839-69.943,430.7" transform="translate(495.557 108.758)" fill="none" stroke="rgba(73,58,154,0.5)" stroke-miterlimit="10" stroke-width="0.059"/>
      <path id="Path_142" data-name="Path 142" d="M224.178,645.777c-193.1-63.8-350.352-251.6-358.207-200.78-7.052,44.993-99.97-110.675-92.053-83.538,10.216,35.021,111.8-133.248,139.54-53.412-10.2,7.968-141.65,213.607-140.287,226.752C-224.755,554.807,266.916,36.95,221.4-23.567,169.924-92.022-3.79,201.809-83.248,438.33" transform="translate(495.561 108.757)" fill="none" stroke="rgba(75,59,154,0.51)" stroke-miterlimit="10" stroke-width="0.062"/>
      <path id="Path_143" data-name="Path 143" d="M251.432,639.576C47.75,574.94-118.711,387.238-127.177,442.088c-7.83,50.118-105.042-116.868-97.46-86.386,9.877,39.717,111.8-137.977,142.929-52.53C-90.368,313.2-216.056,507.293-213.88,522.227-210.641,544.473,272.1,35.939,224.411-25.656,171.118-94.482-16.505,194.781-96.549,445.965" transform="translate(495.562 108.756)" fill="none" stroke="rgba(77,61,154,0.53)" stroke-miterlimit="10" stroke-width="0.064"/>
      <path id="Path_144" data-name="Path 144" d="M278.684,633.376C64.419,567.9-111.248,380.3-120.326,439.18c-8.606,55.242-110.12-123.05-102.866-89.233,9.532,44.429,111.8-142.71,146.317-51.651C-84,310.379-203.931,492.922-200.933,509.655c4.384,24.474,478.228-474.74,428.348-537.4C172.32-96.953-29.221,187.753-109.85,453.6" transform="translate(495.563 108.756)" fill="none" stroke="rgba(78,63,153,0.55)" stroke-miterlimit="10" stroke-width="0.066"/>
      <path id="Path_145" data-name="Path 145" d="M305.938,627.176C81.087,560.862-103.786,373.37-113.475,436.272c-9.382,60.367-115.207-129.224-108.272-92.08,9.179,49.152,111.8-147.441,149.7-50.772-5.58,14.141-119.77,185.126-115.942,203.664,5.514,26.7,470.484-463.2,418.406-526.915C173.528-99.433-41.937,180.725-123.15,461.233" transform="translate(495.563 108.755)" fill="none" stroke="rgba(80,65,153,0.56)" stroke-miterlimit="10" stroke-width="0.069"/>
      <path id="Path_146" data-name="Path 146" d="M333.191,620.977C97.755,553.823-96.323,366.437-106.625,433.363c-10.157,65.493-120.3-135.39-113.676-94.925,8.819,53.883,111.8-152.173,153.091-49.892-4.039,16.2-112.492,175.619-107.826,195.967C-168.408,513.427,287.71,32.836,233.426-31.92,174.743-101.925-54.652,173.7-136.451,468.867" transform="translate(495.564 108.754)" fill="none" stroke="rgba(81,67,153,0.58)" stroke-miterlimit="10" stroke-width="0.071"/>
      <path id="Path_147" data-name="Path 147" d="M360.445,614.776C114.424,546.785-88.86,359.5-99.773,430.455c-10.936,70.616-125.4-141.552-119.083-97.772,8.456,58.621,111.8-156.9,156.48-49.013-2.5,18.256-105.218,166.112-99.712,188.272,7.736,31.131,455.016-440.16,398.52-505.95-60.471-70.417-303.8,200.676-386.184,510.51" transform="translate(495.564 108.753)" fill="none" stroke="rgba(83,69,152,0.59)" stroke-miterlimit="10" stroke-width="0.074"/>
      <path id="Path_148" data-name="Path 148" d="M387.7,608.575C131.092,539.745-81.4,352.57-92.922,427.546c-11.712,75.742-130.5-147.711-124.488-100.62,8.087,63.365,111.8-161.635,159.868-48.132-.961,20.313-97.949,156.6-91.6,180.576C-140.306,492.716,298.152,30.716,239.437-36.1c-62.253-70.839-319.52,195.735-402.49,520.232" transform="translate(495.564 108.752)" fill="none" stroke="rgba(84,70,152,0.61)" stroke-miterlimit="10" stroke-width="0.076"/>
      <path id="Path_149" data-name="Path 149" d="M414.951,602.375C147.76,532.706-73.934,345.636-86.07,424.638c-12.489,80.866-135.6-153.868-129.895-103.467,7.716,68.111,111.8-166.367,163.256-47.253.579,22.371-90.683,147.091-83.482,172.879,9.927,35.562,439.573-417.156,378.634-484.982C178.41-109.454-92.8,152.611-176.355,491.77" transform="translate(495.565 108.752)" fill="none" stroke="rgba(86,72,151,0.62)" stroke-miterlimit="10" stroke-width="0.079"/>
      <path id="Path_150" data-name="Path 150" d="M442.2,596.175C164.429,525.667-66.471,338.7-79.219,421.73c-13.265,85.99-140.711-160.023-135.3-106.314,7.341,72.861,132.886-178.374,166.644-46.372C-41.8,292.8-131.3,406.622-123.244,434.226c11.017,37.775,431.86-405.67,368.691-474.5C179.639-111.98-105.513,145.582-189.656,499.4" transform="translate(495.565 108.751)" fill="none" stroke="rgba(87,74,151,0.64)" stroke-miterlimit="10" stroke-width="0.081"/>
      <path id="Path_151" data-name="Path 151" d="M469.458,589.975C181.1,518.628-59.008,331.768-72.368,418.822c-14.043,91.115-145.823-166.176-140.707-109.16,6.964,77.611,130.761-182.737,170.032-45.494,7.355,25.706-76.157,128.067-67.253,157.488,12.1,39.988,424.153-394.192,358.749-464.017-67.583-72.153-366.683,180.915-451.41,549.4" transform="translate(495.566 108.75)" fill="none" stroke="rgba(89,76,151,0.65)" stroke-miterlimit="10" stroke-width="0.084"/>
      <path id="Path_152" data-name="Path 152" d="M496.713,583.775C197.767,511.589-51.544,324.835-65.515,415.913c-14.818,96.241-150.934-172.327-146.112-112.006,6.583,82.364,128.906-187.081,173.419-44.615,8.653,27.694-68.9,118.554-59.138,149.791C-84.163,451.286,319.1,26.362,251.46-44.449c-69.356-72.607-382.4,175.975-467.715,559.122" transform="translate(495.565 108.749)" fill="none" stroke="rgba(90,78,150,0.67)" stroke-miterlimit="10" stroke-width="0.086"/>
      <path id="Path_153" data-name="Path 153" d="M523.971,577.575C214.44,504.551-44.076,317.9-58.659,413.006c-15.6,101.364-156.048-178.479-151.519-114.855,6.2,87.119,127.277-191.418,176.807-43.733,9.964,29.709-61.637,109.041-51.024,142.095,14.265,44.416,408.75-371.259,338.864-443.05C183.344-119.6-143.654,124.5-229.551,522.307" transform="translate(495.561 108.749)" fill="none" stroke="rgba(92,80,150,0.69)" stroke-miterlimit="10" stroke-width="0.088"/>
      <path id="Path_154" data-name="Path 154" d="M551.228,571.374C231.114,497.511-36.608,310.967-51.8,410.1c-16.371,106.49-161.163-184.628-156.925-117.7,5.82,91.874,125.829-195.759,180.2-42.854,11.287,31.745-54.381,99.529-42.909,134.4C-56.1,430.57,329.612,24.135,257.481-48.626c-72.9-73.533-413.845,166.095-500.328,578.567" transform="translate(495.556 108.748)" fill="none" stroke="rgba(94,81,150,0.7)" stroke-miterlimit="10" stroke-width="0.091"/>
      <path id="Path_155" data-name="Path 155" d="M578.487,565.174c-330.7-74.7-607.628-261.14-623.433-157.986C-62.1,518.8-211.227,216.41-207.278,286.64c5.435,96.631,124.532-200.109,183.584-41.974,12.621,33.8-47.125,90.015-34.794,126.7C-42.072,420.211,334.871,23.011,260.49-50.715,185.825-124.721-169.074,110.44-256.143,537.576" transform="translate(495.552 108.747)" fill="none" stroke="rgba(95,83,149,0.72)" stroke-miterlimit="10" stroke-width="0.093"/>
      <path id="Path_156" data-name="Path 156" d="M605.745,558.974C264.46,483.434-21.673,297.1-38.091,404.28c-17.926,116.739-171.4-196.927-167.736-123.395,5.049,101.387,123.359-204.468,186.972-41.095,13.965,35.866-39.87,80.5-26.679,119.007C-28.046,409.854,340.136,21.878,263.5-52.8c-76.434-74.485-445.287,156.214-532.94,598.013" transform="translate(495.547 108.746)" fill="none" stroke="rgba(97,85,149,0.73)" stroke-miterlimit="10" stroke-width="0.096"/>
      <path id="Path_157" data-name="Path 157" d="M633,552.774c-351.87-76.379-647.209-262.607-664.238-151.4C-49.937,523.235-207.751,198.3-204.377,275.13c4.662,106.145,122.291-208.838,190.36-40.215C1.3,272.86-46.632,305.9-32.582,346.227-14.02,399.5,345.4,20.739,266.511-54.891,188.31-129.86-194.5,96.383-282.736,552.845" transform="translate(495.543 108.745)" fill="none" stroke="rgba(98,87,149,0.75)" stroke-miterlimit="10" stroke-width="0.098"/>
      <path id="Path_158" data-name="Path 158" d="M660.261,546.573c-362.454-77.218-667-263.341-684.639-148.111C-43.857,525.451-206.015,189.24-202.926,269.375c4.272,110.9,121.31-213.219,193.747-39.335,16.674,40.03-25.361,61.474-10.449,103.615C0,389.138,350.669,19.593,269.521-56.979c-79.969-75.46-476.728,146.333-565.553,617.458" transform="translate(495.539 108.745)" fill="none" stroke="rgba(100,89,148,0.76)" stroke-miterlimit="10" stroke-width="0.101"/>
      <path id="Path_159" data-name="Path 159" d="M687.519,540.373C314.48,462.316.73,276.3-17.522,395.555-37.778,527.668-204.278,180.184-201.476,263.62-197.593,379.283-81.071,46.008-4.342,225.164c18.04,42.124-18.108,51.961-2.334,95.92,20.7,57.7,362.614-302.644,279.207-380.151-81.737-75.955-492.449,141.393-581.859,627.18" transform="translate(495.534 108.744)" fill="none" stroke="rgba(101,90,148,0.78)" stroke-miterlimit="10" stroke-width="0.103"/>
      <path id="Path_160" data-name="Path 160" d="M714.776,534.173C331.152,455.277,8.2,269.365-10.666,392.646-31.7,529.885-202.544,171.127-200.027,257.865-196.533,378.287-80.462,35.851.5,220.29c19.411,44.222-10.856,42.447,5.781,88.223C28.05,368.422,361.211,17.282,275.542-61.155,192.036-137.61-232.627,75.3-322.624,575.748" transform="translate(495.53 108.743)" fill="none" stroke="rgba(103,92,148,0.8)" stroke-miterlimit="10" stroke-width="0.105"/>
      <path id="Path_161" data-name="Path 161" d="M742.035,527.973C347.826,448.238,15.666,262.431-3.81,389.738-25.619,532.1-200.81,162.071-198.577,252.11c3.1,125.181,118.779-226.427,203.911-36.7,20.786,46.325-3.6,32.934,13.9,80.528C42.072,358.064,366.485,16.117,278.551-63.244,193.279-140.2-245.338,68.269-335.92,583.382" transform="translate(495.526 108.742)" fill="none" stroke="rgba(104,94,147,0.81)" stroke-miterlimit="10" stroke-width="0.108"/>
      <path id="Path_162" data-name="Path 162" d="M769.293,521.772C364.5,441.2,23.134,255.5,3.046,386.83-19.541,534.318-198.912,153.014-197.126,246.355c2.94,129.936,118.04-230.848,207.3-35.816,22.166,48.433,3.648,23.42,22.011,72.831C56.092,347.707,371.76,14.947,281.563-65.332,194.521-142.8-258.048,61.241-349.216,591.016" transform="translate(495.521 108.741)" fill="none" stroke="rgba(106,96,147,0.83)" stroke-miterlimit="10" stroke-width="0.11"/>
      <path id="Path_163" data-name="Path 163" d="M796.551,515.572C381.172,434.16,30.6,248.564,9.9,383.922-13.461,536.533-197.195,143.959-195.676,240.6-193.15,375.3-78.332,5.322,15.01,205.663c23.55,50.545,10.9,13.906,30.126,65.135C70.113,337.35,377.037,13.771,284.572-67.42,195.762-145.4-270.76,54.212-362.512,598.651" transform="translate(495.517 108.741)" fill="none" stroke="rgba(108,98,147,0.84)" stroke-miterlimit="10" stroke-width="0.113"/>
      <path id="Path_164" data-name="Path 164" d="M823.81,509.373C397.846,427.122,38.069,241.63,16.758,381.013-7.381,538.751-195.478,134.9-194.226,234.845-192.116,374.3-77.544-4.87,19.848,200.787c24.937,52.658,18.256,4.353,38.242,57.439C84.268,326.94,382.315,12.59,287.583-69.509,197-148.008-283.471,47.184-375.808,606.285" transform="translate(495.512 108.74)" fill="none" stroke="rgba(109,100,146,0.86)" stroke-miterlimit="10" stroke-width="0.115"/>
      <path id="Path_165" data-name="Path 165" d="M851.067,503.172C414.52,420.083,45.536,234.7,23.614,378.106-1.3,540.966-193.761,125.85-192.776,229.09c1.7,144.219,116.054-244.16,217.464-33.177,26.327,54.773,25.492-5.157,46.355,49.743C98.27,316.588,387.595,11.406,290.593-71.6,198.243-150.617-296.18,40.155-389.1,613.919" transform="translate(495.508 108.739)" fill="none" stroke="rgba(111,101,146,0.87)" stroke-miterlimit="10" stroke-width="0.118"/>
      <path id="Path_166" data-name="Path 166" d="M878.326,496.972C431.192,413.044,53,227.763,30.469,375.2,4.778,543.183-192.043,116.8-191.327,223.334c1.283,148.981,115.453-248.612,220.852-32.3,27.72,56.892,32.731-14.665,54.47,42.047C112.273,306.237,392.876,10.215,293.6-73.684c-94.12-79.545-602.494,106.811-696,695.238" transform="translate(495.504 108.738)" fill="none" stroke="rgba(112,103,145,0.89)" stroke-miterlimit="10" stroke-width="0.12"/>
      <path id="Path_167" data-name="Path 167" d="M905.584,490.771C447.865,406,60.472,220.829,37.326,372.288,10.857,545.4-190.327,107.741-189.876,217.579-189.008,371.321-75-35.489,34.363,186.162c29.116,59.011,39.969-24.175,62.586,34.35C126.275,295.886,398.157,9.021,296.613-75.772,200.722-155.846-321.6,26.1-415.7,629.188" transform="translate(495.499 108.737)" fill="none" stroke="rgba(114,105,145,0.91)" stroke-miterlimit="10" stroke-width="0.122"/>
      <path id="Path_168" data-name="Path 168" d="M932.842,484.572C464.539,398.966,67.94,213.9,44.182,369.38,16.937,547.616-188.61,98.687-188.426,211.824-187.973,370.328-74.1-45.707,39.2,181.286c30.514,61.133,47.207-33.684,70.7,26.656,30.377,77.592,293.538-200.12,189.722-285.8C201.96-158.467-334.312,19.07-428.993,636.821" transform="translate(495.495 108.737)" fill="none" stroke="rgba(115,107,145,0.92)" stroke-miterlimit="10" stroke-width="0.125"/>
      <path id="Path_169" data-name="Path 169" d="M960.1,478.372C481.212,391.926,75.407,206.963,51.038,366.472c-28.023,183.36-237.93-276.839-238.013-160.4.038,163.265,113.789-262,231.014-29.658,31.914,63.255,54.445-43.194,78.815,18.958C154.281,275.182,408.722,6.619,302.633-79.949,203.2-161.089-347.023,12.042-442.289,644.456" transform="translate(495.491 108.736)" fill="none" stroke="rgba(117,109,144,0.94)" stroke-miterlimit="10" stroke-width="0.127"/>
      <path id="Path_170" data-name="Path 170" d="M987.358,472.172C497.885,384.888,82.875,200.028,57.894,363.564,29.1,552.049-185.175,80.578-185.526,200.314-185.9,368.34-72.251-66.16,48.877,171.536c33.317,65.38,61.683-52.7,86.931,11.263C168.283,264.83,414.006,5.412,305.644-82.038,204.434-163.715-359.734,5.014-455.585,652.091" transform="translate(495.486 108.735)" fill="none" stroke="rgba(118,111,144,0.95)" stroke-miterlimit="10" stroke-width="0.13"/>
      <path id="Path_171" data-name="Path 171" d="M1014.616,465.97C514.559,377.849,90.343,193.095,64.751,360.656,35.175,554.265-183.458,71.524-184.075,194.558c-.79,172.788,112.775-270.951,237.791-27.9,34.719,67.5,68.921-62.212,95.044,3.566C182.286,254.479,419.29,4.2,308.654-84.126,205.67-166.344-372.444-2.015-468.881,659.725" transform="translate(495.482 108.734)" fill="none" stroke="rgba(120,112,144,0.97)" stroke-miterlimit="10" stroke-width="0.132"/>
      <path id="Path_172" data-name="Path 172" d="M1041.875,459.771C531.232,370.81,97.811,186.161,71.606,357.747,41.254,556.482-181.741,62.469-182.625,188.8c-1.2,177.549,111.819-275.189,241.179-27.018,35.994,69.7,76.159-71.722,103.16-4.129C196.288,244.128,424.7,2.822,311.664-86.214,207.026-169.127-385.154-9.043-482.177,667.36" transform="translate(495.477 108.733)" fill="none" stroke="rgba(121,114,143,0.98)" stroke-miterlimit="10" stroke-width="0.135"/>
      <path id="Path_173" data-name="Path 173" d="M1069.133,453.571c-521.228-89.8-963.854-274.343-990.67-98.733C47.334,558.7-180.024,53.414-181.175,183.049c-1.62,182.31,111.819-279.92,244.565-26.139,37.534,71.755,83.4-81.231,111.276-11.826C210.291,233.776,429.86,1.768,314.675-88.3c-106.535-83.306-712.54,72.23-810.148,763.3" transform="translate(495.473 108.732)" fill="none" stroke="#7b748f" stroke-miterlimit="10" stroke-width="0.137"/>
    </g>
    <g id="Group_6" data-name="Group 6" transform="translate(-166.825 -126.612)" style="mix-blend-mode: multiply;isolation: isolate">
      <path id="Path_174" data-name="Path 174" d="M1300.516-77.518c-91.67,40.221-172.879-152.8-336.077,34.462-29.23,33.27-56.721,44.667-83.66,44.745-73.525.213-142.572-85.7-229.391-30.341C629.156-14.475,586.5-40.823,540.217-67.973c-60.144-35.306-127.043-72.439-163.8-24.831C306.631-2.4,247.713,16.316,143.543-53.515,30.08-129.5-11.535-16.123-85.659-39.877c-237.63-76.2-240.728-5.213-323.385,98.873" transform="translate(409.044 126.295)" fill="none" stroke="rgba(103,79,148,0.22)" stroke-miterlimit="10" stroke-width="0.095"/>
      <path id="Path_175" data-name="Path 175" d="M1299.554-68.228C1206.946-30.345,1126.678-219.4,964.3-35.08,935.259-2.114,907.712,9.04,880.722,9.04c-72.938,0-142.036-84.758-228.848-30.323C629.507-7.258,586.959-33.191,540.912-59.772c-59.829-34.568-126.518-70.941-163.445-23.8C307.53,5.7,248.41,24.313,144.862-44.912,31.9-120.319-10-8.8-83.764-32.263c-236.386-75.259-240.058-3.915-323.047,97.552" transform="translate(409.045 126.298)" fill="none" stroke="rgba(104,81,149,0.24)" stroke-miterlimit="10" stroke-width="0.095"/>
      <path id="Path_176" data-name="Path 176" d="M1298.59-58.937C1205.048-23.394,1125.342-208.822,964.16-27.1c-28.919,32.6-56.455,43.573-83.5,43.494-72.352-.211-141.506-83.814-228.307-30.3-22.5,13.873-64.936-11.647-110.75-37.657C482.094-85.4,415.614-121.016,378.514-74.351,308.432,13.8,249.105,32.308,146.181-36.308,33.723-111.136-8.457-1.479-81.869-24.649-317.01-98.966-321.256-27.267-404.578,71.583" transform="translate(409.045 126.301)" fill="none" stroke="rgba(104,84,150,0.24)" stroke-miterlimit="10" stroke-width="0.095"/>
      <path id="Path_177" data-name="Path 177" d="M1297.627-49.647C1203.15-16.443,1124-198.24,964.022-19.129c-28.8,32.24-56.32,43.027-83.414,42.869-71.764-.418-140.979-82.874-227.765-30.285C630.2,7.174,587.883-17.929,542.3-43.371c-59.2-33.1-125.468-67.946-162.744-21.752C309.337,21.9,249.8,40.3,147.5-27.705,35.545-101.954-6.919,5.844-79.973-17.036c-233.9-73.374-238.717-1.32-322.373,94.912" transform="translate(409.046 126.304)" fill="none" stroke="rgba(105,86,151,0.25)" stroke-miterlimit="10" stroke-width="0.095"/>
      <path id="Path_178" data-name="Path 178" d="M1296.664-40.357c-95.413,30.864-174.006-147.3-332.782,29.2-28.675,31.876-56.186,42.48-83.331,42.243C809.374,30.468,740.09-50.847,653.327.825,630.551,14.388,588.345-10.3,543-35.17,484.113-67.53,418.057-101.62,380.606-55.9,310.245,30.008,250.5,48.3,148.82-19.1,37.368-92.772-5.379,13.165-78.077-9.422c-232.656-72.431-238.046-.022-322.036,93.592" transform="translate(409.047 126.307)" fill="none" stroke="rgba(105,88,153,0.27)" stroke-miterlimit="10" stroke-width="0.095"/>
      <path id="Path_179" data-name="Path 179" d="M1295.7-31.065C1199.352-2.541,1121.309-177.079,963.743-3.177c-28.554,31.515-56.052,41.936-83.25,41.618-70.588-.823-139.944-81-226.682-30.246C630.9,21.6,588.807-2.666,543.694-26.968c-58.571-31.624-124.413-64.953-162.042-19.7C311.156,38.111,251.193,56.3,150.138-10.5,39.19-83.589-3.84,20.488-76.182-1.809-307.594-73.3-313.557-.533-397.881,90.464" transform="translate(409.048 126.31)" fill="none" stroke="rgba(106,90,154,0.28)" stroke-miterlimit="10" stroke-width="0.095"/>
      <path id="Path_180" data-name="Path 180" d="M1294.737-21.775C1197.453,4.41,1119.958-166.5,963.6,4.8c-28.433,31.153-55.917,41.391-83.168,40.992C810.436,44.769,741-34.285,654.3,15.564c-23.054,13.253-65.027-10.6-109.907-34.331C486.132-49.655,420.506-82.224,382.7-37.441,312.07,46.216,251.889,64.294,151.457-1.9,41.013-74.407-2.3,27.809-74.286,5.8c-230.17-70.546-236.7,2.574-321.362,90.952" transform="translate(409.048 126.313)" fill="none" stroke="rgba(106,92,155,0.29)" stroke-miterlimit="10" stroke-width="0.095"/>
      <path id="Path_181" data-name="Path 181" d="M1293.774-12.485c-98.219,23.847-175.174-143.44-330.31,25.26-28.314,30.789-55.783,40.845-83.086,40.366-69.412-1.218-138.928-79.152-225.6-30.209-23.195,13.1-65.049-10.335-109.7-33.5-57.942-30.152-123.352-61.959-161.34-17.648C312.986,54.321,252.585,72.292,152.776,6.706,42.835-65.225-.762,35.131-72.391,13.418c-228.925-69.6-236.034,3.871-321.024,89.631" transform="translate(409.049 126.316)" fill="none" stroke="rgba(107,94,157,0.3)" stroke-miterlimit="10" stroke-width="0.095"/>
      <path id="Path_182" data-name="Path 182" d="M1292.811-3.2c-99.155,21.508-175.57-142.156-329.486,23.946-28.2,30.427-55.648,40.3-83,39.741C811.5,59.081,741.895-17.741,655.264,30.3,631.929,43.243,590.192,20.229,545.779-2.366,488.151-31.783,422.961-62.828,384.79-18.987,313.906,62.427,253.281,80.287,154.1,15.31,44.656-56.042.777,42.453-70.5,21.031c-227.683-68.66-235.364,5.17-320.687,88.313" transform="translate(409.05 126.318)" fill="none" stroke="rgba(107,96,158,0.31)" stroke-miterlimit="10" stroke-width="0.095"/>
      <path id="Path_183" data-name="Path 183" d="M1291.848,6.1c-100.091,19.169-175.97-140.873-328.662,22.631C935.11,58.79,907.673,68.486,880.263,67.842,812.03,66.241,742.333-9.474,655.75,37.671c-23.48,12.784-65.1-9.811-109.275-31.835-57.314-28.68-122.284-58.965-160.639-15.6C314.83,70.531,253.977,88.284,155.414,23.913,46.478-46.859,2.316,49.775-68.6,28.644c-226.44-67.717-234.7,6.467-320.35,86.993" transform="translate(409.051 126.321)" fill="none" stroke="rgba(108,99,159,0.33)" stroke-miterlimit="10" stroke-width="0.095"/>
      <path id="Path_184" data-name="Path 184" d="M1290.885,15.386C1189.859,32.216,1114.51-124.207,963.046,36.7,935.088,66.4,907.668,75.918,880.2,75.193,812.563,73.4,742.769-1.212,656.234,45.041c-23.624,12.626-65.118-9.55-109.065-31-57-27.944-121.748-57.468-160.288-14.57C315.755,78.639,254.672,96.28,156.734,32.516,48.3-37.677,3.856,57.1-66.7,36.258c-225.2-66.775-234.024,7.766-320.012,85.673" transform="translate(409.051 126.324)" fill="none" stroke="rgba(108,101,161,0.33)" stroke-miterlimit="10" stroke-width="0.094"/>
      <path id="Path_185" data-name="Path 185" d="M1289.922,24.676c-101.962,14.491-176.784-138.313-327.016,20-27.84,29.339-55.242,38.674-82.758,37.863C813.1,80.571,743.2,7.044,656.718,52.409c-23.769,12.469-65.139-9.287-108.853-30.172C491.181-4.971,426.654-33.733,387.927,8.695c-71.242,78.053-132.56,95.582-229.875,32.425C50.123-28.5,5.394,64.419-64.809,43.872c-223.953-65.833-233.354,9.063-319.676,84.353" transform="translate(409.052 126.327)" fill="none" stroke="rgba(109,103,162,0.35)" stroke-miterlimit="10" stroke-width="0.094"/>
      <path id="Path_186" data-name="Path 186" d="M1288.959,33.967c-102.9,12.15-177.2-137.036-326.192,18.687-27.724,28.977-55.107,38.132-82.677,37.238C813.629,87.739,743.625,15.3,657.2,59.779c-23.916,12.31-65.164-9.025-108.643-29.34C492.191,3.966,427.888-24.034,388.974,17.921c-71.357,76.935-132.91,94.352-229.6,31.8C51.946-19.312,6.933,71.741-62.914,51.485-285.622-13.4-295.6,61.846-382.251,134.517" transform="translate(409.053 126.33)" fill="none" stroke="rgba(109,105,163,0.36)" stroke-miterlimit="10" stroke-width="0.094"/>
      <path id="Path_187" data-name="Path 187" d="M1288,43.257C1184.163,53.069,1110.38-92.5,962.628,60.63c-27.607,28.613-54.971,37.591-82.6,36.613-65.872-2.332-135.987-73.7-222.345-30.095C633.625,79.3,592.5,58.385,549.256,38.64,493.2,12.9,429.124-14.335,390.019,27.149c-71.467,75.817-133.26,93.121-229.329,31.176C53.768-10.13,8.472,79.063-61.018,59.1c-221.465-63.947-232.012,11.659-319,81.713" transform="translate(409.054 126.333)" fill="none" stroke="rgba(110,107,164,0.37)" stroke-miterlimit="10" stroke-width="0.094"/>
      <path id="Path_188" data-name="Path 188" d="M1287.033,52.549c-104.769,7.472-178.04-134.487-324.545,16.057-27.491,28.25-54.834,37.051-82.512,35.988-65.281-2.507-135.512-72.8-221.8-30.076-24.211,11.988-65.208-8.5-108.221-27.677-55.74-25-119.59-51.476-158.885-10.464-71.575,74.7-133.611,91.89-229.056,30.552C55.59-.948,10.011,86.386-59.122,66.712c-220.222-63-231.342,12.955-318.664,80.392" transform="translate(409.054 126.336)" fill="none" stroke="rgba(110,109,166,0.38)" stroke-miterlimit="10" stroke-width="0.094"/>
      <path id="Path_189" data-name="Path 189" d="M1286.07,61.839c-105.7,5.134-178.468-133.217-323.72,14.744-27.377,27.886-54.7,36.511-82.431,35.362-64.69-2.681-135.042-71.916-221.262-30.058-24.36,11.827-65.232-8.239-108.011-26.845C495.221,30.778,431.6,5.064,392.112,45.6c-71.679,73.586-133.96,90.66-228.783,29.928C57.411,8.235,11.55,93.707-57.227,74.326-276.206,12.263-287.9,88.58-375.554,153.4" transform="translate(409.055 126.339)" fill="none" stroke="rgba(111,111,167,0.39)" stroke-miterlimit="10" stroke-width="0.094"/>
      <path id="Path_190" data-name="Path 190" d="M1285.107,71.129c-106.64,2.794-178.9-131.947-322.9,13.429-27.263,27.524-54.563,35.972-82.348,34.736-64.1-2.85-134.574-71.032-220.721-30.039-24.51,11.664-65.254-7.977-107.8-26.013C496.23,39.714,432.84,14.765,393.158,54.83c-71.781,72.474-134.311,89.428-228.511,29.3C59.233,17.418,13.089,101.03-55.331,81.939c-217.736-61.119-230,15.551-317.99,77.752" transform="translate(409.056 126.342)" fill="none" stroke="rgba(111,114,168,0.4)" stroke-miterlimit="10" stroke-width="0.094"/>
      <path id="Path_191" data-name="Path 191" d="M1284.144,80.42c-107.576.454-179.338-130.682-322.073,12.114-27.15,27.161-54.427,35.434-82.267,34.11-63.509-3.017-134.111-70.152-220.178-30.019-24.661,11.5-65.277-7.716-107.588-25.181C497.24,48.651,434.083,24.466,394.2,64.058c-71.878,71.361-134.541,88.01-228.237,28.679C61.189,26.389,14.628,108.351-53.435,89.553c-216.493-60.177-229.331,16.85-317.653,76.431" transform="translate(409.057 126.345)" fill="none" stroke="rgba(112,116,170,0.42)" stroke-miterlimit="10" stroke-width="0.094"/>
      <path id="Path_192" data-name="Path 192" d="M1283.181,89.71c-108.512-1.885-179.781-129.418-321.25,10.8-27.037,26.8-54.29,34.9-82.185,33.485-62.918-3.181-133.651-69.278-219.636-30-24.813,11.335-65.3-7.453-107.377-24.35-54.483-22.056-117.407-45.478-157.482-6.36-71.973,70.251-134.887,86.773-227.964,28.056C63.016,35.563,16.168,115.674-51.541,97.167-266.789,37.932-280.2,115.313-368.855,172.278" transform="translate(409.057 126.348)" fill="none" stroke="rgba(112,118,171,0.42)" stroke-miterlimit="10" stroke-width="0.094"/>
      <path id="Path_193" data-name="Path 193" d="M1282.218,99c-109.446-4.224-180.229-128.157-320.426,9.484-26.926,26.436-54.154,34.359-82.1,32.86-62.327-3.343-133.2-68.408-219.1-29.981-24.967,11.169-65.321-7.191-107.167-23.519C499.26,66.525,436.571,43.869,396.3,82.512c-72.063,69.143-135.233,85.535-227.691,27.432C64.843,44.737,17.706,123-49.645,104.78c-214.005-58.292-227.991,19.445-316.978,73.791" transform="translate(409.058 126.351)" fill="none" stroke="rgba(113,120,172,0.44)" stroke-miterlimit="10" stroke-width="0.094"/>
      <path id="Path_194" data-name="Path 194" d="M1281.255,108.291c-110.382-6.563-180.682-126.9-319.6,8.17-26.815,26.072-54.018,33.824-82.022,32.235-61.734-3.5-132.744-67.543-218.553-29.962-25.121,11-65.345-6.929-106.955-22.687C500.27,75.463,437.818,53.571,397.343,91.739c-72.152,68.035-135.581,84.3-227.419,26.808C66.67,53.911,19.245,130.318-47.75,112.393c-212.762-57.348-227.32,20.743-316.64,72.472" transform="translate(409.059 126.354)" fill="none" stroke="rgba(113,122,174,0.45)" stroke-miterlimit="10" stroke-width="0.094"/>
      <path id="Path_195" data-name="Path 195" d="M1280.291,117.581c-111.318-8.9-181.141-125.643-318.778,6.855-26.7,25.708-53.881,33.289-81.939,31.609-61.144-3.659-132.3-66.684-218.011-29.944-25.277,10.835-65.367-6.666-106.746-21.854-53.539-19.849-115.751-40.972-156.43-3.281C326.153,167.9,262.462,184.025,171.243,127.15,68.5,63.086,20.785,137.639-45.854,120.006c-211.519-56.407-226.65,22.041-316.3,71.152" transform="translate(409.059 126.357)" fill="none" stroke="rgba(114,124,175,0.46)" stroke-miterlimit="10" stroke-width="0.094"/>
      <path id="Path_196" data-name="Path 196" d="M1279.328,126.872c-112.254-11.241-181.606-124.391-317.954,5.542-26.6,25.343-53.744,32.753-81.858,30.983-60.552-3.812-131.849-65.829-217.47-29.925-25.431,10.666-65.39-6.4-106.534-21.023-53.225-19.112-115.2-39.469-156.079-2.256-72.317,65.827-136.273,81.823-226.873,25.559C70.323,72.261,22.324,144.961-43.958,127.62c-210.276-55.464-225.979,23.339-315.966,69.832" transform="translate(409.06 126.36)" fill="none" stroke="rgba(114,126,176,0.47)" stroke-miterlimit="10" stroke-width="0.094"/>
      <path id="Path_197" data-name="Path 197" d="M1278.365,136.162c-113.189-13.58-182.077-123.142-317.13,4.227-26.487,24.979-53.607,32.22-81.776,30.358-59.96-3.963-131.407-64.979-216.926-29.906-25.588,10.493-65.412-6.142-106.324-20.192-52.91-18.376-114.64-37.965-155.728-1.229-72.4,64.725-136.621,80.587-226.6,24.935-101.732-62.92-150.018,7.928-215.944-9.122-209.032-54.521-225.309,24.636-315.629,68.513" transform="translate(409.061 126.363)" fill="none" stroke="rgba(115,129,177,0.48)" stroke-miterlimit="10" stroke-width="0.094"/>
      <path id="Path_198" data-name="Path 198" d="M1277.4,145.453c-114.125-15.92-182.553-121.9-316.306,2.912-26.38,24.615-53.471,31.686-81.695,29.733-59.368-4.111-130.966-64.134-216.384-29.887-25.746,10.321-65.436-5.88-106.114-19.36-52.594-17.64-114.081-36.459-155.377-.2C329.055,192.274,264.559,208,175.2,152.958,73.974,90.612,25.4,159.605-40.168,142.847c-207.787-53.579-224.638,25.935-315.291,67.192" transform="translate(409.062 126.366)" fill="none" stroke="rgba(115,131,179,0.49)" stroke-miterlimit="10" stroke-width="0.094"/>
      <path id="Path_199" data-name="Path 199" d="M1276.439,154.743c-115.06-18.259-183.036-120.654-315.483,1.6-26.273,24.25-53.333,31.155-81.613,29.108-58.775-4.257-130.53-63.295-215.842-29.869-25.9,10.15-65.458-5.618-105.9-18.528-52.28-16.9-113.52-34.954-155.026.824C330.03,200.4,265.257,215.988,176.519,161.562,75.8,99.788,26.941,166.927-38.271,150.461c-206.546-52.636-223.969,27.232-314.956,65.872" transform="translate(409.062 126.368)" fill="none" stroke="rgba(116,133,180,0.51)" stroke-miterlimit="10" stroke-width="0.094"/>
      <path id="Path_200" data-name="Path 200" d="M1275.476,164.033c-116-20.6-183.525-119.415-314.66.284-26.167,23.885-53.2,30.624-81.53,28.481-58.184-4.4-130.1-62.461-215.3-29.85-26.064,9.975-65.481-5.356-105.692-17.7-51.966-16.168-112.959-33.446-154.676,1.849-72.61,61.434-137.662,76.878-225.78,23.064-100.213-61.2-149.358,4.084-214.215-12.091-205.3-51.694-223.3,28.529-314.618,64.552" transform="translate(409.063 126.371)" fill="none" stroke="rgba(116,135,181,0.51)" stroke-miterlimit="10" stroke-width="0.094"/>
      <path id="Path_201" data-name="Path 201" d="M1274.512,173.324c-116.93-22.938-184.019-118.182-313.834-1.031-26.063,23.52-53.058,30.093-81.449,27.856-57.593-4.54-129.665-61.63-214.759-29.831-26.223,9.8-65.5-5.094-105.481-16.865-51.652-15.432-112.4-31.937-154.325,2.876-72.676,60.341-138.012,75.642-225.508,22.438-99.707-60.628-149.138,2.8-213.638-13.08-204.058-50.751-222.627,29.827-314.279,63.232" transform="translate(409.064 126.374)" fill="none" stroke="rgba(117,137,183,0.53)" stroke-miterlimit="10" stroke-width="0.094"/>
      <path id="Path_202" data-name="Path 202" d="M1273.55,182.614c-117.867-25.276-184.521-116.95-313.012-2.346-25.959,23.154-52.922,29.565-81.366,27.231-57-4.678-129.237-60.806-214.218-29.813-26.384,9.623-65.549-4.75-105.271-16.032-51.367-14.591-111.83-30.428-153.974,3.9-72.739,59.251-138.36,74.406-225.234,21.815-99.2-60.055-148.918,1.522-213.062-14.071-202.816-49.808-221.957,31.125-313.942,61.911" transform="translate(409.065 126.377)" fill="none" stroke="rgba(117,139,184,0.54)" stroke-miterlimit="10" stroke-width="0.094"/>
      <path id="Path_203" data-name="Path 203" d="M1272.587,191.905c-118.8-27.616-185.029-115.726-312.189-3.661-25.856,22.787-52.783,29.037-81.284,26.606-56.409-4.813-128.81-59.987-213.675-29.794-26.545,9.445-65.571-4.485-105.059-15.2C509.328,156,449.117,140.939,406.757,174.784c-72.8,58.163-138.709,73.173-224.962,21.191-98.7-59.481-148.7.24-212.485-15.06-201.572-48.866-221.287,32.423-313.606,60.592" transform="translate(409.065 126.38)" fill="none" stroke="rgba(118,141,185,0.55)" stroke-miterlimit="10" stroke-width="0.094"/>
      <path id="Path_204" data-name="Path 204" d="M1271.624,201.2c-119.738-29.955-185.544-114.5-311.365-4.975-25.755,22.419-52.647,28.508-81.2,25.979-55.817-4.945-128.385-59.171-213.132-29.774-26.708,9.264-65.593-4.222-104.849-14.37-50.737-13.113-110.695-27.4-153.273,5.955-72.854,57.078-139.057,71.938-224.689,20.567-98.19-58.906-148.478-1.04-211.908-16.049C-229.123,140.6-249.412,222.25-342.063,247.8" transform="translate(409.066 126.383)" fill="none" stroke="rgba(118,144,186,0.56)" stroke-miterlimit="10" stroke-width="0.093"/>
      <path id="Path_205" data-name="Path 205" d="M1270.661,210.486C1149.986,178.191,1084.595,97.2,960.12,204.2c-25.654,22.053-52.509,27.983-81.12,25.354-55.227-5.075-127.964-58.361-212.592-29.755-26.869,9.083-65.614-3.959-104.638-13.537-50.421-12.377-110.124-25.891-152.922,6.98-72.907,56-139.4,70.7-224.415,19.943C86.747,154.849,36.176,210.86-26.9,196.142c-199.086-46.98-219.946,35.019-312.932,57.952" transform="translate(409.067 126.386)" fill="none" stroke="rgba(119,146,188,0.57)" stroke-miterlimit="10" stroke-width="0.093"/>
      <path id="Path_206" data-name="Path 206" d="M1269.7,219.777C1148.089,185.142,1083.1,107.7,959.981,212.171c-25.556,21.686-52.373,27.458-81.039,24.729-54.635-5.2-127.543-57.557-212.05-29.736-27.032,8.9-65.636-3.7-104.427-12.706-50.105-11.639-109.553-24.375-152.572,8.007-72.956,54.917-139.754,69.471-224.142,19.318C88.57,164.028,37.715,218.181-25,203.755c-197.841-46.037-219.275,36.317-312.593,56.633" transform="translate(409.068 126.389)" fill="none" stroke="rgba(119,148,189,0.58)" stroke-miterlimit="10" stroke-width="0.093"/>
      <path id="Path_207" data-name="Path 207" d="M1268.735,229.067C1146.19,192.095,1081.6,118.2,959.841,220.148c-25.457,21.316-52.236,26.933-80.956,24.1-54.044-5.327-127.125-56.758-211.508-29.717-27.2,8.714-65.659-3.433-104.217-11.875-49.789-10.9-108.979-22.858-152.22,9.033-73,53.841-140.1,68.237-223.87,18.694C90.394,173.207,39.253,225.5-23.108,211.368c-196.6-45.095-218.6,37.614-312.257,55.312" transform="translate(409.068 126.392)" fill="none" stroke="rgba(120,150,190,0.6)" stroke-miterlimit="10" stroke-width="0.093"/>
      <path id="Path_208" data-name="Path 208" d="M1267.772,238.358C1144.291,199.046,1080.1,128.687,959.7,228.124c-25.361,20.947-52.1,26.411-80.875,23.478-53.453-5.449-126.709-55.963-210.966-29.7-27.359,8.528-65.679-3.17-104.005-11.044-49.473-10.162-108.4-21.338-151.87,10.059-73.048,52.768-140.453,67.005-223.6,18.071-96.174-56.6-147.6-6.165-209.6-20.009-195.355-44.152-217.935,38.913-311.92,53.993" transform="translate(409.069 126.395)" fill="none" stroke="rgba(120,152,192,0.6)" stroke-miterlimit="10" stroke-width="0.093"/>
      <path id="Path_209" data-name="Path 209" d="M1266.808,247.648C1142.392,206,1078.584,139.172,959.563,236.1,934.3,256.676,907.6,261.988,878.77,258.952c-52.861-5.569-126.292-55.174-210.423-29.68-27.525,8.342-65.7-2.906-103.8-10.211-49.158-9.425-107.827-19.819-151.519,11.087-73.09,51.7-140.8,65.772-223.324,17.446-95.669-56.027-147.378-7.445-209.027-21-194.111-43.209-217.265,40.21-311.583,52.672" transform="translate(409.07 126.398)" fill="none" stroke="rgba(121,154,193,0.62)" stroke-miterlimit="10" stroke-width="0.093"/>
      <path id="Path_210" data-name="Path 210" d="M1265.846,256.938c-125.352-43.99-188.784-107.288-306.422-12.863-25.172,20.206-51.825,25.368-80.712,22.226-52.27-5.686-125.878-54.389-209.881-29.66-27.69,8.152-65.723-2.643-103.584-9.379C516.4,218.574,458,208.967,414.078,239.374c-73.129,50.632-141.154,64.54-223.05,16.823-95.165-55.45-147.157-8.727-208.45-21.987-192.868-42.267-216.594,41.508-311.245,51.352" transform="translate(409.07 126.401)" fill="none" stroke="rgba(121,156,194,0.63)" stroke-miterlimit="10" stroke-width="0.093"/>
      <path id="Path_211" data-name="Path 211" d="M1264.882,266.229c-126.287-46.329-189.349-106.106-305.6-14.177-25.08,19.833-51.689,24.848-80.629,21.6-51.679-5.8-125.466-53.609-209.339-29.641-27.856,7.96-65.745-2.381-103.374-8.548-48.526-7.953-106.669-16.772-150.817,13.138-73.166,49.567-141.5,63.309-222.778,16.2C97.686,209.927,45.409,254.792-15.527,241.822c-191.625-41.325-215.924,42.806-310.907,50.032" transform="translate(409.071 126.404)" fill="none" stroke="rgba(122,158,196,0.64)" stroke-miterlimit="10" stroke-width="0.093"/>
      <path id="Path_212" data-name="Path 212" d="M1263.92,275.519C1136.7,226.851,1074,170.588,959.145,260.028,934.156,279.487,907.593,284.358,878.6,281c-51.09-5.913-125.054-52.835-208.8-29.623-28.022,7.768-65.766-2.118-103.162-7.716-48.21-7.215-106.09-15.245-150.467,14.165-73.2,48.508-141.856,62.077-222.5,15.573-94.159-54.294-146.718-11.289-207.3-23.966-190.382-40.382-215.254,44.1-310.57,48.712" transform="translate(409.072 126.407)" fill="none" stroke="rgba(122,161,197,0.65)" stroke-miterlimit="10" stroke-width="0.093"/>
      <path id="Path_213" data-name="Path 213" d="M1262.957,284.81C1134.8,233.8,1072.451,181.047,959.007,268c-24.9,19.086-51.416,23.814-80.467,20.35-50.5-6.023-124.644-52.065-208.255-29.6-28.188,7.574-65.787-1.856-102.952-6.884-47.894-6.479-105.506-13.716-150.115,15.191C343.985,314.508,275.01,327.9,194.986,282c-93.658-53.716-146.5-12.569-206.721-24.955-189.139-39.439-214.584,45.4-310.234,47.392" transform="translate(409.073 126.409)" fill="none" stroke="rgba(123,163,198,0.66)" stroke-miterlimit="10" stroke-width="0.093"/>
      <path id="Path_214" data-name="Path 214" d="M1261.993,294.1C1132.9,240.753,1070.9,191.5,958.867,275.979c-24.811,18.71-51.28,23.3-80.383,19.724-49.91-6.131-124.236-51.3-207.714-29.585-28.354,7.376-65.808-1.594-102.741-6.053-47.578-5.743-104.923-12.184-149.765,16.217C345,322.682,275.706,335.9,196.3,290.608,103.15,237.472,50.027,276.757-9.84,264.663c-187.895-38.5-213.912,46.7-309.9,46.072" transform="translate(409.073 126.412)" fill="none" stroke="rgba(123,165,199,0.67)" stroke-miterlimit="10" stroke-width="0.093"/>
      <path id="Path_215" data-name="Path 215" d="M1261.031,303.391C1131,247.7,1069.337,201.939,958.728,283.956c-24.726,18.333-51.144,22.784-80.3,19.1C829.1,296.818,754.6,252.513,671.253,273.488c-28.521,7.178-65.829-1.331-102.53-5.221-47.261-5.009-104.337-10.652-149.415,17.243C346.02,330.86,276.4,343.9,197.624,299.211,104.971,246.654,51.565,284.08-7.944,272.277c-186.651-37.554-213.242,48-309.56,44.752" transform="translate(409.074 126.415)" fill="none" stroke="rgba(124,167,201,0.69)" stroke-miterlimit="10" stroke-width="0.093"/>
      <path id="Path_216" data-name="Path 216" d="M1260.067,312.681c-130.965-58.025-192.3-100.308-301.479-20.75-24.64,17.954-51.008,22.271-80.219,18.472-48.732-6.338-123.419-49.784-206.63-29.547-28.69,6.979-65.852-1.069-102.32-4.388-46.945-4.272-103.751-9.115-149.065,18.269-73.312,44.306-143.26,57.158-221.412,13.077C106.791,255.839,53.105,291.4-6.048,279.89c-185.409-36.612-212.572,49.294-309.222,43.431" transform="translate(409.075 126.418)" fill="none" stroke="rgba(124,169,202,0.69)" stroke-miterlimit="10" stroke-width="0.093"/>
      <path id="Path_217" data-name="Path 217" d="M1259.1,321.971c-131.9-60.365-192.912-99.173-300.655-22.064-24.556,17.575-50.872,21.761-80.137,17.847-48.144-6.439-123.01-49.035-206.089-29.528-28.857,6.776-65.872-.808-102.109-3.557-46.627-3.537-103.162-7.577-148.713,19.3-73.335,43.265-143.612,55.929-221.139,12.453-91.65-51.4-145.618-17.694-204.415-28.914-184.165-35.669-211.9,50.593-308.885,42.111" transform="translate(409.076 126.421)" fill="none" stroke="rgba(125,171,203,0.71)" stroke-miterlimit="10" stroke-width="0.093"/>
      <path id="Path_218" data-name="Path 218" d="M1258.141,331.263c-132.837-62.7-193.536-98.048-299.833-23.38-24.474,17.193-50.737,21.252-80.055,17.222-47.555-6.537-122.6-48.29-205.547-29.508-29.023,6.571-65.893-.548-101.9-2.727-46.312-2.8-102.573-6.036-148.363,20.322-73.356,42.228-143.964,54.7-220.866,11.829-91.149-50.815-145.4-18.975-203.838-29.9-182.921-34.725-211.232,51.89-308.548,40.791" transform="translate(409.076 126.424)" fill="none" stroke="rgba(125,173,205,0.72)" stroke-miterlimit="10" stroke-width="0.093"/>
      <path id="Path_219" data-name="Path 219" d="M1257.177,340.553c-133.771-65.043-194.166-96.931-299.007-24.694-24.4,16.809-50.6,20.745-79.973,16.6-46.968-6.633-122.2-47.55-205-29.49-29.193,6.367-65.915-.286-101.687-1.894-46-2.068-101.983-4.493-148.012,21.348-73.377,41.194-144.318,53.472-220.593,11.2C112.251,283.392,57.722,313.368-.363,302.73c-181.678-33.783-210.56,53.189-308.21,39.472" transform="translate(409.077 126.427)" fill="none" stroke="rgba(126,176,206,0.73)" stroke-miterlimit="10" stroke-width="0.093"/>
      <path id="Path_220" data-name="Path 220" d="M1256.215,349.844c-134.707-67.383-194.805-95.827-298.185-26.01-24.317,16.422-50.467,20.239-79.891,15.971-46.379-6.727-121.789-46.813-204.463-29.471-29.36,6.159-65.935-.025-101.477-1.062-45.679-1.332-101.391-2.947-147.661,22.373-73.394,40.166-144.671,52.246-220.319,10.581C114.07,292.577,59.261,320.69,1.533,310.344-178.9,277.5-208.358,364.83-306.34,348.5" transform="translate(409.078 126.43)" fill="none" stroke="rgba(126,178,207,0.74)" stroke-miterlimit="10" stroke-width="0.093"/>
      <path id="Path_221" data-name="Path 221" d="M1255.252,359.134C1119.609,289.412,1059.8,264.4,957.891,331.81c-24.24,16.034-50.331,19.735-79.809,15.346C832.289,340.338,756.7,301.074,674.161,317.7c-29.529,5.949-65.957.235-101.265-.231-45.363-.6-100.8-1.4-147.31,23.4-73.411,39.141-145.025,51.019-220.047,9.957C115.89,301.763,60.8,328.012,3.429,317.957c-179.192-31.9-209.221,55.784-307.536,36.832" transform="translate(409.079 126.433)" fill="none" stroke="rgba(127,180,208,0.75)" stroke-miterlimit="10" stroke-width="0.093"/>
      <path id="Path_222" data-name="Path 222" d="M1254.288,368.424c-136.578-72.061-196.107-93.647-296.537-28.637-24.165,15.643-50.2,19.231-79.727,14.719-45.207-6.907-120.975-45.354-203.379-29.433-29.7,5.738-65.978.5-101.055.6-45.046.135-100.2.153-146.959,24.426-73.426,38.12-145.378,49.792-219.774,9.332-89.147-48.483-144.518-24.1-201.532-33.861-177.949-30.956-208.55,57.081-307.2,35.511" transform="translate(409.079 126.436)" fill="none" stroke="rgba(127,182,210,0.76)" stroke-miterlimit="10" stroke-width="0.093"/>
      <path id="Path_223" data-name="Path 223" d="M1253.326,377.715c-137.514-74.4-196.772-92.575-295.713-29.953-24.094,15.249-50.064,18.731-79.646,14.094-44.621-6.994-120.566-44.632-202.837-29.414-29.864,5.524-66,.756-100.844,1.433-44.731.868-99.612,1.709-146.608,25.452-73.441,37.1-145.732,48.566-219.5,8.708-88.649-47.9-144.3-25.38-200.957-34.85-176.7-30.014-207.878,58.378-306.861,34.19" transform="translate(409.08 126.438)" fill="none" stroke="rgba(128,184,211,0.78)" stroke-miterlimit="10" stroke-width="0.093"/>
      <path id="Path_224" data-name="Path 224" d="M1252.362,387.006c-138.45-76.74-197.442-91.515-294.889-31.267-24.023,14.853-49.93,18.233-79.564,13.468-44.035-7.079-120.158-43.913-202.295-29.395-30.032,5.308-66.021,1.015-100.633,2.265-44.414,1.6-99.017,3.266-146.258,26.478-73.454,36.092-146.086,47.343-219.228,8.086C121.345,329.327,65.417,349.978,9.115,340.8c-175.461-29.071-207.208,59.677-306.524,32.872" transform="translate(409.081 126.441)" fill="none" stroke="rgba(128,186,212,0.78)" stroke-miterlimit="10" stroke-width="0.093"/>
      <path id="Path_225" data-name="Path 225" d="M1251.4,396.3c-139.385-79.079-198.122-90.469-294.065-32.582-23.955,14.454-49.8,17.736-79.483,12.843C834.4,369.395,758.1,333.357,676.1,347.182c-30.2,5.091-66.042,1.275-100.423,3.1-44.1,2.336-98.419,4.827-145.907,27.505-73.465,35.083-146.44,46.117-218.955,7.46-87.651-46.727-143.857-27.943-199.8-36.831-174.218-28.127-206.538,60.974-306.188,31.551" transform="translate(409.081 126.444)" fill="none" stroke="rgba(129,188,214,0.8)" stroke-miterlimit="10" stroke-width="0.092"/>
      <path id="Path_226" data-name="Path 226" d="M1250.437,405.586c-140.322-81.418-198.81-89.435-293.242-33.9-23.888,14.049-49.665,17.242-79.4,12.217-42.866-7.242-119.339-42.491-201.211-29.358-30.367,4.873-66.063,1.536-100.212,3.929-43.781,3.067-97.823,6.39-145.556,28.53-73.477,34.08-146.8,44.893-218.682,6.836C124.98,347.706,68.5,364.622,12.907,356.026c-172.975-27.185-205.869,62.272-305.851,30.232" transform="translate(409.082 126.447)" fill="none" stroke="rgba(129,191,215,0.81)" stroke-miterlimit="10" stroke-width="0.092"/>
      <path id="Path_227" data-name="Path 227" d="M1249.473,414.876c-141.255-83.756-199.5-88.416-292.417-35.21-23.823,13.641-49.534,16.749-79.319,11.592-42.282-7.321-118.929-41.787-200.669-29.339-30.535,4.65-66.085,1.8-100,4.761-43.465,3.8-97.228,7.959-145.206,29.556-73.488,33.084-147.149,43.671-218.409,6.213C126.8,356.9,70.035,371.944,14.8,363.639c-171.731-26.243-205.2,63.57-305.513,28.911" transform="translate(409.083 126.45)" fill="none" stroke="rgba(130,193,216,0.82)" stroke-miterlimit="10" stroke-width="0.092"/>
      <path id="Path_228" data-name="Path 228" d="M1248.511,424.167c-142.193-86.1-200.2-87.414-291.6-36.525-23.76,13.23-49.4,16.258-79.236,10.966-41.7-7.4-118.518-41.085-200.127-29.319-30.7,4.426-66.107,2.054-99.791,5.592-43.151,4.531-96.63,9.529-144.856,30.583-73.5,32.089-147.5,42.448-218.135,5.588-86.159-44.964-143.2-31.785-198.074-39.8-170.488-25.3-204.528,64.868-305.175,27.591" transform="translate(409.084 126.453)" fill="none" stroke="rgba(130,195,218,0.83)" stroke-miterlimit="10" stroke-width="0.092"/>
      <path id="Path_229" data-name="Path 229" d="M1247.547,433.457c-143.127-88.435-200.911-86.425-290.77-37.839-23.7,12.814-49.272,15.771-79.155,10.34-41.118-7.471-118.106-40.387-199.586-29.3-30.869,4.2-66.128,2.313-99.58,6.423-42.834,5.264-96.032,11.1-144.5,31.609-73.51,31.1-147.861,41.227-217.863,4.964-85.662-44.374-142.978-33.067-197.5-40.788-169.245-24.357-203.858,66.166-304.839,26.272" transform="translate(409.084 126.456)" fill="none" stroke="rgba(131,197,219,0.84)" stroke-miterlimit="10" stroke-width="0.092"/>
      <path id="Path_230" data-name="Path 230" d="M1246.584,442.749c-144.063-90.775-201.625-85.455-289.945-39.154C933,415.987,907.5,418.879,877.564,413.309c-40.535-7.543-117.692-39.7-199.042-29.282-31.037,3.974-66.16,2.508-99.369,7.255C536.622,397.2,483.719,403.964,435,423.918c-73.52,30.114-148.217,40.005-217.59,4.339-85.165-43.783-142.758-34.347-196.921-41.779-168-23.414-203.187,67.464-304.5,24.952" transform="translate(409.085 126.459)" fill="none" stroke="rgba(131,199,220,0.85)" stroke-miterlimit="10" stroke-width="0.092"/>
      <path id="Path_231" data-name="Path 231" d="M1245.622,452.039c-145-93.114-202.346-84.5-289.123-40.468-23.584,11.966-49.013,14.8-78.991,9.089-39.955-7.613-117.278-39.006-198.5-29.262-31.2,3.742-66.183,2.769-99.159,8.087-42.216,6.649-94.836,14.261-143.8,33.661-73.532,29.133-148.573,38.785-217.318,3.715-84.669-43.192-142.537-35.629-196.345-42.768-166.758-22.471-202.516,68.762-304.163,23.632" transform="translate(409.086 126.461)" fill="none" stroke="rgba(132,201,221,0.87)" stroke-miterlimit="10" stroke-width="0.092"/>
      <path id="Path_232" data-name="Path 232" d="M1244.658,461.33c-145.934-95.454-203.068-83.564-288.3-41.785-23.529,11.535-48.884,14.323-78.909,8.465-39.375-7.682-116.861-38.322-197.96-29.244-31.369,3.512-66.2,3.032-98.947,8.919-41.9,7.385-94.238,15.846-143.452,34.687-73.543,28.157-148.929,37.565-217.043,3.092-84.174-42.6-142.318-36.91-195.768-43.758-165.514-21.529-201.845,70.06-303.827,22.312" transform="translate(409.087 126.464)" fill="none" stroke="rgba(132,203,223,0.87)" stroke-miterlimit="10" stroke-width="0.092"/>
      <path id="Path_233" data-name="Path 233" d="M1243.695,470.62c-146.869-97.792-203.8-82.647-287.476-43.1-23.476,11.095-48.756,13.845-78.826,7.839-38.8-7.748-116.443-37.64-197.418-29.225-31.535,3.277-66.228,3.293-98.736,9.75-41.588,8.122-93.64,17.434-143.1,35.715-73.555,27.185-149.287,36.345-216.771,2.467-83.678-42.007-142.1-38.192-195.191-44.747C-138.1,388.734-175,480.678-277.315,430.312" transform="translate(409.087 126.467)" fill="none" stroke="rgba(133,206,224,0.89)" stroke-miterlimit="10" stroke-width="0.092"/>
      <path id="Path_234" data-name="Path 234" d="M1242.732,479.91C1094.926,379.779,1038.206,398.162,956.08,435.5c-23.425,10.649-48.63,13.369-78.745,7.212-38.219-7.812-116.024-36.962-196.876-29.2-31.7,3.041-66.251,3.555-98.525,10.581-41.274,8.858-93.043,19.025-142.751,36.74-73.568,26.219-149.643,35.129-216.5,1.844C139.5,421.258,80.808,423.2,28.07,416.935c-163.028-19.644-200.5,72.655-303.152,19.671" transform="translate(409.088 126.47)" fill="none" stroke="rgba(133,208,225,0.9)" stroke-miterlimit="10" stroke-width="0.092"/>
      <path id="Path_235" data-name="Path 235" d="M1241.769,489.2c-148.741-102.471-205.258-80.873-285.828-45.728-23.374,10.2-48.5,12.9-78.663,6.587-37.641-7.875-115.6-36.29-196.334-29.186-31.865,2.8-66.273,3.817-98.315,11.413-40.958,9.594-92.443,20.621-142.4,37.766-73.582,25.255-150,33.911-216.225,1.219C141.315,430.456,82.347,430.52,29.966,424.548-131.819,405.846-169.869,498.5-272.85,442.9" transform="translate(409.089 126.473)" fill="none" stroke="rgba(134,210,227,0.91)" stroke-miterlimit="10" stroke-width="0.092"/>
      <path id="Path_236" data-name="Path 236" d="M1240.806,498.492c-149.677-104.81-205.991-80.015-285-47.042-23.327,9.735-48.379,12.429-78.582,5.962-37.065-7.935-115.18-35.62-195.791-29.168-32.03,2.564-66.3,4.08-98.1,12.246-40.643,10.329-91.846,22.218-142.049,38.793-73.6,24.3-150.419,32.816-215.952.6C143.054,439.81,83.886,437.843,31.861,432.162-128.68,414.4-167.3,507.412-270.617,449.193" transform="translate(409.09 126.476)" fill="none" stroke="rgba(134,212,228,0.92)" stroke-miterlimit="10" stroke-width="0.092"/>
      <path id="Path_237" data-name="Path 237" d="M1239.842,507.782C1089.231,400.633,1033.12,428.6,955.662,459.426c-23.279,9.264-48.255,11.962-78.5,5.336-36.489-7.994-114.754-34.954-195.248-29.149-32.195,2.322-66.319,4.341-97.894,13.077-40.329,11.066-91.25,23.82-141.7,39.819-73.612,23.344-150.769,31.584-215.678-.029-81.767-39.489-141.217-43.316-192.886-48.706-159.3-16.815-198.494,76.548-302.14,15.712" transform="translate(409.09 126.479)" fill="none" stroke="rgba(135,214,229,0.93)" stroke-miterlimit="10" stroke-width="0.092"/>
      <path id="Path_238" data-name="Path 238" d="M1238.879,517.072c-151.548-109.488-207.451-78.37-283.356-49.67-23.233,8.785-48.133,11.5-78.418,4.711-35.917-8.051-114.328-34.29-194.708-29.13-32.357,2.078-66.341,4.6-97.683,13.909-40.014,11.8-90.653,25.426-141.348,40.845-73.629,22.394-151.118,30.355-215.4-.653-81.264-38.909-141-44.6-192.309-49.7-158.054-15.873-197.824,77.846-301.8,14.392" transform="translate(409.091 126.481)" fill="none" stroke="rgba(135,216,231,0.95)" stroke-miterlimit="10" stroke-width="0.092"/>
      <path id="Path_239" data-name="Path 239" d="M1237.916,526.364c-152.483-111.828-208.177-77.583-282.533-50.986-23.188,8.295-48.011,11.041-78.336,4.085-35.344-8.107-113.9-33.631-194.166-29.111-32.519,1.831-66.363,4.866-97.471,14.74-39.7,12.538-90.059,27.036-141,41.872-73.648,21.449-151.469,29.124-215.133-1.277C148.52,467.357,88.5,459.809,37.547,455c-156.811-14.932-197.153,79.144-301.466,13.071" transform="translate(409.092 126.484)" fill="none" stroke="rgba(136,218,232,0.96)" stroke-miterlimit="10" stroke-width="0.092"/>
      <path id="Path_240" data-name="Path 240" d="M1236.953,535.654c-153.418-114.167-208.9-76.819-281.708-52.3-23.143,7.793-47.892,10.584-78.254,3.459-34.773-8.16-113.467-32.975-193.624-29.093-32.682,1.583-66.387,5.129-97.262,15.572-39.385,13.274-89.463,28.649-140.646,42.9-73.669,20.509-151.819,27.893-214.86-1.9-80.256-37.751-140.557-47.159-191.156-51.675-155.567-13.989-196.484,80.442-301.129,11.751" transform="translate(409.092 126.487)" fill="none" stroke="rgba(136,221,233,0.96)" stroke-miterlimit="10" stroke-width="0.092"/>
      <path id="Path_241" data-name="Path 241" d="M1235.99,544.944c-154.354-116.505-209.6-76.08-280.885-53.614-23.1,7.279-47.772,10.132-78.172,2.834-34.2-8.212-113.033-32.322-193.083-29.074-32.842,1.332-66.408,5.391-97.05,16.4-39.071,14.01-88.869,30.265-140.3,43.924-73.692,19.572-152.169,26.663-214.587-2.525-79.754-37.172-140.337-48.441-190.58-52.664-154.325-13.046-195.813,81.74-300.792,10.431" transform="translate(409.093 126.489)" fill="none" stroke="rgba(137,223,234,0.98)" stroke-miterlimit="10" stroke-width="0.092"/>
      <path id="Path_242" data-name="Path 242" d="M1235.027,554.236c-155.29-118.845-210.3-75.368-280.061-54.929-23.052,6.754-47.655,9.684-78.091,2.209-33.632-8.262-112.6-31.821-192.539-29.055-33,1.018-66.432,5.653-96.84,17.236-38.757,14.746-88.255,31.975-139.945,44.95-73.685,18.767-152.519,25.432-214.314-3.149-79.25-36.592-140.117-49.721-190-53.654-153.081-12.1-195.142,83.036-300.455,9.111" transform="translate(409.094 126.492)" fill="none" stroke="rgba(137,225,236,0.99)" stroke-miterlimit="10" stroke-width="0.092"/>
    </g>
    <rect id="Rectangle_5" data-name="Rectangle 5" width="1093.8" height="1355.119" transform="matrix(-0.486, 0.874, -0.874, -0.486, 1480.575, 96.399)" fill="url(#linear-gradient)" style="mix-blend-mode: screen;isolation: isolate"/>
  </g>
</svg>
