<svg xmlns="http://www.w3.org/2000/svg" xmlns:xlink="http://www.w3.org/1999/xlink" width="157.015" height="29.664" viewBox="0 0 157.015 29.664">
  <defs>
    <clipPath id="clip-path">
      <rect id="Rectangle_14" data-name="Rectangle 14" width="157.015" height="29.664" transform="translate(307.54 78.898)" fill="none"/>
    </clipPath>
    <clipPath id="clip-path-2">
      <path id="Path_265" data-name="Path 265" d="M307.54,78.9v29.664H464.556V78.9" transform="translate(-307.54 -78.898)" fill="none"/>
    </clipPath>
  </defs>
  <g id="Group_23" data-name="Group 23" transform="translate(-301.54 -77.898)">
    <g id="Group_22" data-name="Group 22" transform="translate(-6 -1)" clip-path="url(#clip-path)">
      <g id="Group_21" data-name="Group 21" transform="translate(307.54 78.898)">
        <g id="Group_20" data-name="Group 20" clip-path="url(#clip-path-2)">
          <path id="Path_243" data-name="Path 243" d="M323.285,106.328h-1.808V95.951q0-1.227.15-2.995h-.043a9.584,9.584,0,0,1-.463,1.5l-5.262,11.875h-.882L309.7,94.539a8.854,8.854,0,0,1-.462-1.583H309.2q.086.927.086,3.017v10.355H307.54V90.876h2.39l4.735,10.776a13.749,13.749,0,0,1,.7,1.853h.076q.538-1.488.741-1.9l4.833-10.733h2.271v15.452" transform="translate(-307.54 -76.934)"/>
          <path id="Path_244" data-name="Path 244" d="M325.968,91.435a1.092,1.092,0,0,1-.345.824,1.2,1.2,0,0,1-1.635.01,1.094,1.094,0,0,1-.334-.835,1.119,1.119,0,0,1,.328-.8,1.1,1.1,0,0,1,.823-.339,1.121,1.121,0,0,1,.829.334,1.1,1.1,0,0,1,.334.808m-.3,14.988H323.9V95.389h1.765v11.034" transform="translate(-304.898 -77.029)"/>
          <path id="Path_245" data-name="Path 245" d="M335.523,105.237a5.717,5.717,0,0,1-3.024.776,5.3,5.3,0,0,1-2.706-.695,4.783,4.783,0,0,1-1.868-1.967,6.052,6.052,0,0,1-.667-2.855,6.146,6.146,0,0,1,1.567-4.4,5.462,5.462,0,0,1,4.169-1.66,5.6,5.6,0,0,1,2.551.56v1.811a4.515,4.515,0,0,0-2.626-.862,3.525,3.525,0,0,0-2.782,1.223,4.622,4.622,0,0,0-1.071,3.162,4.368,4.368,0,0,0,1.016,3.05,3.5,3.5,0,0,0,2.728,1.121,4.445,4.445,0,0,0,2.712-.949v1.681" transform="translate(-304.307 -76.349)"/>
          <path id="Path_246" data-name="Path 246" d="M341.926,96.487a2.363,2.363,0,0,0-3.25.75,5.1,5.1,0,0,0-.732,2.872v5.624h-1.765V94.7h1.765v2.274h.043a3.893,3.893,0,0,1,1.13-1.805,2.6,2.6,0,0,1,1.754-.662,2.919,2.919,0,0,1,1.055.15v1.832" transform="translate(-302.844 -76.339)"/>
          <path id="Path_247" data-name="Path 247" d="M352.175,100.183a5.958,5.958,0,0,1-1.49,4.23,5.2,5.2,0,0,1-4,1.6,5.089,5.089,0,0,1-3.9-1.557,5.749,5.749,0,0,1-1.458-4.1,6.056,6.056,0,0,1,1.5-4.326,5.389,5.389,0,0,1,4.123-1.59,4.917,4.917,0,0,1,3.841,1.535,6.04,6.04,0,0,1,1.389,4.208m-1.808.065a4.877,4.877,0,0,0-.921-3.189,3.223,3.223,0,0,0-2.631-1.11,3.384,3.384,0,0,0-2.691,1.137,4.728,4.728,0,0,0-.991,3.206,4.486,4.486,0,0,0,1,3.1,3.422,3.422,0,0,0,2.685,1.115,3.235,3.235,0,0,0,2.636-1.1,4.81,4.81,0,0,0,.915-3.157" transform="translate(-302 -76.349)"/>
          <path id="Path_248" data-name="Path 248" d="M358.645,102.791a2.855,2.855,0,0,1-1.1,2.328,4.52,4.52,0,0,1-2.933.894,5.425,5.425,0,0,1-2.733-.668v-1.9a4.443,4.443,0,0,0,2.862,1.056q2.1,0,2.1-1.541a1.352,1.352,0,0,0-.409-1.018,7.806,7.806,0,0,0-1.862-1.062,5.535,5.535,0,0,1-2.066-1.341,3.075,3.075,0,0,1,.5-4.187,4.2,4.2,0,0,1,2.786-.916,5.284,5.284,0,0,1,2.357.517v1.779a4.121,4.121,0,0,0-2.5-.787,2.174,2.174,0,0,0-1.4.431,1.366,1.366,0,0,0-.532,1.11,1.487,1.487,0,0,0,.409,1.126,6.034,6.034,0,0,0,1.69.932,6.1,6.1,0,0,1,2.206,1.4,2.711,2.711,0,0,1,.636,1.843" transform="translate(-300.271 -76.349)"/>
          <path id="Path_249" data-name="Path 249" d="M369.563,100.183a5.958,5.958,0,0,1-1.49,4.23,5.2,5.2,0,0,1-4,1.6,5.089,5.089,0,0,1-3.9-1.557,5.749,5.749,0,0,1-1.458-4.1,6.056,6.056,0,0,1,1.5-4.326,5.389,5.389,0,0,1,4.123-1.59,4.917,4.917,0,0,1,3.841,1.535,6.04,6.04,0,0,1,1.389,4.208m-1.808.065a4.877,4.877,0,0,0-.921-3.189,3.223,3.223,0,0,0-2.631-1.11,3.384,3.384,0,0,0-2.691,1.137,4.728,4.728,0,0,0-.991,3.206,4.486,4.486,0,0,0,1,3.1A3.422,3.422,0,0,0,364.2,104.5a3.235,3.235,0,0,0,2.636-1.1,4.81,4.81,0,0,0,.915-3.157" transform="translate(-299.149 -76.349)"/>
          <path id="Path_250" data-name="Path 250" d="M375.185,91.7a2.346,2.346,0,0,0-1.173-.291q-1.851,0-1.851,2.338v1.7h2.583v1.5h-2.583v9.536H370.4V96.949h-1.872v-1.5H370.4V93.663a3.763,3.763,0,0,1,.991-2.716,3.333,3.333,0,0,1,2.519-1.035,3.459,3.459,0,0,1,1.28.194V91.7" transform="translate(-297.541 -77.092)"/>
          <path id="Path_251" data-name="Path 251" d="M380.663,106.058a3.378,3.378,0,0,1-1.659.355q-2.884,0-2.883-3.253V96.629h-1.895v-1.5h1.895V92.438l1.765-.572v3.265h2.777v1.5h-2.777v6.228a2.556,2.556,0,0,0,.377,1.579,1.524,1.524,0,0,0,1.258.468,1.884,1.884,0,0,0,1.142-.355v1.508" transform="translate(-296.606 -76.771)"/>
          <path id="Path_252" data-name="Path 252" d="M394.886,95.488a4.607,4.607,0,0,1-1.543,3.615,5.87,5.87,0,0,1-4.053,1.373h-2.033v5.851h-1.809V90.876h4.242a5.579,5.579,0,0,1,3.836,1.212,4.317,4.317,0,0,1,1.361,3.4m-1.894.1q0-3.071-3.616-3.071h-2.12V98.85h1.894A4.269,4.269,0,0,0,392,98a3,3,0,0,0,.991-2.42" transform="translate(-294.766 -76.934)"/>
          <path id="Path_253" data-name="Path 253" d="M402.7,105.743H400.93v-1.724h-.042a3.692,3.692,0,0,1-3.391,1.994,3.652,3.652,0,0,1-2.55-.867,2.992,2.992,0,0,1-.958-2.334q0-3.082,3.637-3.6l3.3-.463q0-2.8-2.27-2.8a5.451,5.451,0,0,0-3.6,1.347v-1.81a5.37,5.37,0,0,1,1.659-.705,7.58,7.58,0,0,1,2.087-.34q3.885,0,3.885,4.127v7.176m-1.766-5.581-2.668.377a3.941,3.941,0,0,0-1.916.652,1.825,1.825,0,0,0-.549,1.482,1.653,1.653,0,0,0,.592,1.33,2.267,2.267,0,0,0,1.518.5,2.824,2.824,0,0,0,2.168-.927,3.286,3.286,0,0,0,.854-2.317v-1.1" transform="translate(-293.365 -76.349)"/>
          <path id="Path_254" data-name="Path 254" d="M409.6,96.487a2.363,2.363,0,0,0-3.25.75,5.1,5.1,0,0,0-.732,2.872v5.624h-1.765V94.7h1.765v2.274h.043a3.912,3.912,0,0,1,1.13-1.805,2.6,2.6,0,0,1,1.754-.662,2.92,2.92,0,0,1,1.055.15v1.832" transform="translate(-291.748 -76.339)"/>
          <path id="Path_255" data-name="Path 255" d="M416.763,106.058a3.376,3.376,0,0,1-1.657.355q-2.884,0-2.884-3.253V96.629h-1.894v-1.5h1.894V92.438l1.766-.572v3.265h2.776v1.5h-2.776v6.228a2.556,2.556,0,0,0,.376,1.579,1.527,1.527,0,0,0,1.259.468,1.878,1.878,0,0,0,1.141-.355v1.508" transform="translate(-290.687 -76.771)"/>
          <path id="Path_256" data-name="Path 256" d="M427.124,105.743h-1.766V99.451q0-3.5-2.561-3.5a2.8,2.8,0,0,0-2.179.986,3.643,3.643,0,0,0-.878,2.516v6.292h-1.766V94.709h1.766v1.832h.043a3.958,3.958,0,0,1,3.616-2.1,3.347,3.347,0,0,1,2.77,1.185,5.246,5.246,0,0,1,.953,3.363v6.756" transform="translate(-289.433 -76.349)"/>
          <path id="Path_257" data-name="Path 257" d="M437.108,100.668h-7.781a4.119,4.119,0,0,0,.985,2.851,3.443,3.443,0,0,0,2.611.986,5.4,5.4,0,0,0,3.412-1.207v1.648a6.3,6.3,0,0,1-3.832,1.067,4.616,4.616,0,0,1-3.68-1.525,6.223,6.223,0,0,1-1.325-4.218,6.71,6.71,0,0,1,.662-2.99,5.065,5.065,0,0,1,1.824-2.1,4.7,4.7,0,0,1,2.583-.744,4.176,4.176,0,0,1,3.343,1.4,5.807,5.807,0,0,1,1.2,3.906v.927m-1.808-1.5a3.66,3.66,0,0,0-.737-2.376,2.5,2.5,0,0,0-2.018-.846,2.841,2.841,0,0,0-2.1.883,4.131,4.131,0,0,0-1.1,2.338H435.3" transform="translate(-287.871 -76.349)"/>
          <path id="Path_258" data-name="Path 258" d="M443.247,96.487a2.363,2.363,0,0,0-3.25.75,5.113,5.113,0,0,0-.732,2.872v5.624H437.5V94.7h1.765v2.274h.043a3.893,3.893,0,0,1,1.13-1.805,2.6,2.6,0,0,1,1.754-.662,2.915,2.915,0,0,1,1.055.15v1.832" transform="translate(-286.231 -76.339)"/>
          <path id="Path_259" data-name="Path 259" d="M311.958,85.071a1.861,1.861,0,0,1-.689,1.531,2.909,2.909,0,0,1-1.873.555,3.841,3.841,0,0,1-.972-.143,2.61,2.61,0,0,1-.766-.3V85.642a2.683,2.683,0,0,0,.862.5,2.886,2.886,0,0,0,1,.2q1.486,0,1.485-1.158a1.2,1.2,0,0,0-.317-.833,5.981,5.981,0,0,0-1.3-.913,4.611,4.611,0,0,1-1.335-1.023,1.986,1.986,0,0,1,.3-2.67,2.65,2.65,0,0,1,1.766-.574,3.184,3.184,0,0,1,1.517.275v1.013a2.462,2.462,0,0,0-1.566-.474,1.648,1.648,0,0,0-1.048.32,1.03,1.03,0,0,0-.405.85,1.337,1.337,0,0,0,.12.613,1.5,1.5,0,0,0,.41.459,8.4,8.4,0,0,0,.972.609,4.947,4.947,0,0,1,1.431,1.078,1.8,1.8,0,0,1,.41,1.163" transform="translate(-307.521 -78.854)"/>
          <path id="Path_260" data-name="Path 260" d="M313.859,79.556a.544.544,0,0,1-.172.412.566.566,0,0,1-.409.165.573.573,0,0,1-.41-.159.589.589,0,0,1,0-.819.547.547,0,0,1,.411-.169.559.559,0,0,1,.414.166.547.547,0,0,1,.166.4m-.15,7.495h-.882V81.534h.882v5.517" transform="translate(-306.693 -78.883)"/>
          <path id="Path_261" data-name="Path 261" d="M316.221,87.066h-.883V78.9h.883v8.168" transform="translate(-306.261 -78.898)"/>
          <path id="Path_262" data-name="Path 262" d="M322.316,81.175l-2.2,5.517h-.871l-2.083-5.517h.974l1.4,4a4.228,4.228,0,0,1,.183.776h.028a3.454,3.454,0,0,1,.171-.75l1.469-4.03h.927" transform="translate(-305.962 -78.524)"/>
          <path id="Path_263" data-name="Path 263" d="M327.085,84.174h-3.891a2.061,2.061,0,0,0,.492,1.425,1.722,1.722,0,0,0,1.3.494,2.707,2.707,0,0,0,1.706-.6v.824a3.145,3.145,0,0,1-1.916.534,2.307,2.307,0,0,1-1.84-.764,3.109,3.109,0,0,1-.662-2.108,3.347,3.347,0,0,1,.332-1.5,2.526,2.526,0,0,1,.911-1.048,2.349,2.349,0,0,1,1.292-.372,2.088,2.088,0,0,1,1.67.7,2.9,2.9,0,0,1,.6,1.954v.463m-.9-.75a1.836,1.836,0,0,0-.368-1.188,1.254,1.254,0,0,0-1.01-.423,1.422,1.422,0,0,0-1.049.442,2.065,2.065,0,0,0-.549,1.169h2.976" transform="translate(-305.123 -78.543)"/>
          <path id="Path_264" data-name="Path 264" d="M330.628,82.083a1.183,1.183,0,0,0-1.625.375,2.553,2.553,0,0,0-.367,1.436v2.812h-.882V81.189h.882v1.137h.022a1.937,1.937,0,0,1,.565-.9,1.3,1.3,0,0,1,.878-.331,1.42,1.42,0,0,1,.527.076v.915" transform="translate(-304.226 -78.538)"/>
        </g>
      </g>
    </g>
  </g>
</svg>
